<?xml version="1.0" standalone="no"?>
<!DOCTYPE svg PUBLIC "-//W3C//DTD SVG 20010904//EN"
 "http://www.w3.org/TR/2001/REC-SVG-20010904/DTD/svg10.dtd">
<svg version="1.0" xmlns="http://www.w3.org/2000/svg"
 width="260.000000pt" height="260.000000pt" viewBox="0 0 260.000000 260.000000"
 preserveAspectRatio="xMidYMid meet">
<metadata>
Created by potrace 1.14, written by Peter Selinger 2001-2017
</metadata>
<g transform="translate(0.000000,260.000000) scale(0.100000,-0.100000)"
fill="#000000" stroke="none">
<path d="M1055 2484 c-174 -23 -255 -48 -405 -124 -76 -38 -134 -74 -194 -120
-42 -32 -203 -200 -192 -200 3 0 -9 -15 -25 -32 -17 -18 -37 -46 -46 -63 -9
-16 -20 -36 -26 -44 -11 -12 -17 -32 -19 -58 -1 -7 -8 -15 -15 -17 -8 -3 -11
-10 -8 -16 3 -5 1 -10 -5 -10 -7 0 -5 -7 4 -16 17 -17 15 -26 -18 -62 -15 -17
-16 -21 -5 -17 9 3 22 17 29 30 7 14 24 32 38 41 23 15 24 15 17 -8 -5 -17 -4
-19 4 -8 5 8 13 11 16 8 4 -4 -3 -15 -14 -25 -23 -19 -27 -33 -10 -33 5 0 7 5
4 10 -3 6 -2 10 4 10 5 0 11 -3 14 -7 2 -5 3 -3 1 3 -4 18 29 59 51 62 11 2
17 1 13 -4 -4 -4 -3 -13 3 -21 13 -15 -2 -18 -17 -3 -8 8 -15 6 -24 -5 -17
-20 -5 -32 15 -15 9 8 15 8 15 2 0 -6 -10 -18 -22 -26 -12 -9 -23 -26 -25 -38
-2 -17 -1 -19 6 -8 5 8 7 18 5 22 -3 4 2 8 10 8 9 0 16 5 16 10 0 6 12 3 26
-6 19 -13 22 -19 12 -25 -8 -6 -9 -9 -2 -9 7 0 19 11 28 25 9 14 22 23 28 19
7 -4 5 -10 -6 -16 -13 -7 -14 -13 -5 -29 6 -12 13 -18 16 -15 3 3 0 12 -7 21
-18 22 6 19 28 -3 10 -10 24 -16 31 -14 10 3 11 0 1 -18 -6 -12 -9 -25 -5 -28
3 -3 8 4 12 16 6 26 23 29 23 5 0 -15 2 -16 10 -3 7 11 4 18 -10 25 -14 8 -16
14 -9 28 6 9 16 17 24 17 15 0 38 34 29 43 -3 3 -1 14 5 24 8 14 10 10 6 -22
-3 -24 -1 -35 4 -26 6 9 11 10 15 2 4 -6 2 -11 -4 -11 -6 0 -9 -4 -5 -9 3 -5
16 -8 29 -5 14 2 31 -3 40 -11 13 -13 15 -13 21 5 3 11 11 20 16 20 5 0 2 -11
-7 -25 -9 -14 -20 -22 -26 -19 -5 3 -16 0 -25 -8 -14 -11 -16 -11 -8 2 8 13 7
13 -10 0 -17 -13 -18 -13 -10 0 4 8 4 12 0 7 -5 -4 -19 2 -31 14 -14 13 -24
17 -29 10 -3 -6 -11 -9 -16 -6 -5 4 -9 1 -9 -4 0 -6 5 -12 10 -12 6 -1 15 -3
20 -4 6 -1 13 -3 16 -4 3 0 -2 -8 -11 -18 -15 -15 -15 -17 -1 -25 18 -10 56 6
56 25 0 7 4 6 10 -3 12 -19 13 -33 1 -26 -13 8 -45 -20 -37 -33 4 -6 11 -9 16
-6 13 8 20 -39 7 -48 -7 -5 -3 -6 11 -2 13 4 22 2 22 -4 0 -6 -6 -11 -14 -11
-19 0 -36 -52 -24 -73 6 -12 5 -19 -5 -23 -8 -3 -14 -13 -12 -22 2 -9 4 -21 4
-26 1 -4 12 -1 26 8 14 9 25 12 25 6 0 -5 -5 -10 -11 -10 -5 0 -7 -4 -4 -10 3
-5 0 -7 -8 -4 -8 3 -18 0 -22 -5 -3 -6 -12 -9 -18 -5 -7 3 -4 -1 7 -10 10 -8
15 -19 12 -25 -4 -5 -2 -12 4 -16 7 -4 7 -12 0 -25 -14 -26 -13 -30 8 -24 13
4 14 4 4 -4 -8 -5 -12 -22 -11 -38 3 -20 0 -28 -9 -26 -8 1 -11 -2 -8 -7 3 -5
15 -7 26 -4 11 3 17 10 13 16 -4 6 -1 7 7 2 10 -6 7 -13 -11 -27 l-24 -19 25
5 c14 3 19 3 13 0 -7 -3 -13 -13 -13 -22 0 -12 3 -13 12 -4 7 7 17 12 22 12 6
0 4 -5 -4 -10 -8 -5 -15 -24 -15 -41 0 -23 -5 -33 -18 -35 -28 -4 -33 -13 -6
-11 13 1 31 8 39 17 8 8 12 11 8 6 -8 -11 15 -71 37 -92 8 -8 18 -26 21 -40 5
-19 11 -23 28 -19 13 4 16 3 9 -2 -7 -5 -9 -14 -3 -22 8 -15 -8 -51 -23 -51
-4 0 -6 4 -3 8 2 4 0 14 -6 22 -8 12 -9 12 -4 -2 7 -24 -6 -23 -34 2 -30 26
-38 26 -15 0 19 -21 7 -28 -13 -8 -9 9 -15 9 -25 -1 -10 -10 -9 -11 5 -6 14 6
16 2 12 -19 l-4 -26 20 20 c11 11 26 20 32 20 7 0 0 -12 -15 -26 -20 -18 -25
-29 -18 -38 10 -11 0 -39 -13 -37 -25 4 -27 -2 -6 -24 13 -14 21 -27 18 -30
-2 -3 -13 4 -22 14 -11 12 -25 17 -34 13 -15 -5 -15 -4 -3 11 12 15 12 17 -3
11 -10 -4 -15 -13 -12 -21 3 -8 6 -17 6 -20 0 -3 7 0 15 7 13 11 15 9 12 -8
-4 -25 -17 -42 -17 -22 0 10 -3 10 -16 -1 -15 -12 -16 -11 -10 7 5 16 -2 30
-26 54 -30 30 -28 32 16 14 7 -3 20 2 29 10 10 11 17 12 19 4 3 -8 9 -8 24 1
16 10 16 12 1 7 -10 -3 -20 0 -23 9 -5 12 -9 11 -23 -6 -15 -18 -20 -19 -44
-8 -15 7 -27 16 -27 21 0 4 -5 8 -11 8 -8 0 -8 -5 1 -15 15 -18 -1 -20 -18 -3
-9 9 -12 9 -12 1 0 -7 9 -14 20 -18 45 -14 87 -101 53 -112 -5 -2 -9 7 -8 19
3 30 -5 49 -16 42 -5 -3 -9 1 -9 9 0 8 -13 20 -30 27 -16 7 -27 17 -23 23 3 6
1 7 -6 3 -9 -6 -9 -11 0 -22 6 -8 16 -14 22 -14 14 0 51 -43 55 -63 2 -10 -4
-17 -13 -17 -8 0 -18 0 -22 -1 -4 0 -9 4 -11 10 -2 7 4 9 15 5 13 -4 14 -3 5
4 -8 5 -13 12 -13 16 2 17 -1 22 -23 32 -16 7 -29 8 -38 2 -10 -8 -10 -9 3 -5
8 3 25 -3 37 -12 l22 -16 -31 -38 c-20 -25 -28 -43 -24 -56 5 -18 7 -18 30 5
13 13 29 24 36 24 7 0 1 -11 -12 -24 -13 -14 -34 -38 -47 -55 -13 -17 -28 -31
-35 -31 -6 0 -1 10 10 23 20 22 21 47 1 47 -6 0 -6 -6 2 -15 21 -25 -5 -17
-29 9 l-23 24 24 13 c23 12 40 28 68 64 9 11 10 16 3 11 -7 -4 -13 -2 -13 3 0
6 -5 11 -11 11 -8 0 -8 -4 0 -14 10 -11 7 -17 -11 -30 -12 -9 -18 -16 -13 -16
6 0 -9 -12 -32 -26 -43 -25 -51 -38 -33 -49 6 -3 7 1 4 9 -3 9 -3 16 0 16 10
0 56 -43 56 -53 0 -6 -9 -2 -20 8 -11 10 -20 13 -20 8 0 -6 7 -14 16 -17 8 -3
13 -10 10 -15 -4 -5 7 -20 23 -34 17 -14 27 -28 23 -32 -4 -5 -2 -5 5 -1 6 3
17 -2 23 -11 9 -15 10 -14 4 7 -6 22 -5 23 9 11 13 -10 14 -17 6 -33 -7 -13
-7 -18 -1 -14 6 3 13 2 17 -3 3 -6 13 -7 23 -4 15 6 15 5 3 -10 -12 -15 -12
-17 4 -11 13 5 16 4 11 -4 -5 -8 -1 -10 10 -5 13 5 15 3 9 -7 -6 -9 -4 -11 4
-6 8 6 11 2 9 -10 -2 -14 2 -18 16 -16 10 2 15 -1 11 -7 -4 -7 0 -8 11 -4 10
4 15 2 11 -4 -3 -5 0 -10 8 -10 8 0 11 5 8 10 -3 5 0 7 8 5 8 -3 13 -14 13
-26 -1 -12 1 -21 5 -20 20 2 31 -4 25 -14 -4 -7 -3 -8 4 -4 7 4 12 2 12 -3 0
-6 8 -11 17 -11 9 0 25 -8 36 -18 11 -9 17 -12 14 -5 -4 6 -3 14 3 18 5 3 10
-1 10 -10 0 -9 5 -13 10 -10 6 4 7 11 4 17 -4 7 -2 8 4 4 6 -4 9 -13 5 -21 -4
-13 8 -20 21 -12 2 1 13 -6 24 -16 12 -11 26 -16 31 -12 6 3 11 1 11 -5 0 -7
6 -10 14 -7 8 3 17 3 21 -1 4 -4 11 -8 16 -8 5 -1 10 -2 12 -3 1 -2 12 -4 25
-7 23 -4 29 5 12 22 -7 7 -3 20 12 40 18 23 19 26 3 14 -15 -12 -17 -12 -10
-1 5 9 4 12 -3 7 -6 -3 -14 -1 -18 5 -5 8 -3 9 6 4 9 -5 11 -4 6 4 -4 6 -12 9
-17 6 -5 -4 -9 -2 -9 4 0 5 6 11 13 14 9 3 8 8 -3 22 -12 15 -12 17 -1 10 9
-5 12 -4 8 2 -4 7 4 10 22 8 22 -2 28 2 26 14 -1 9 -8 15 -15 13 -6 -1 -8 2
-4 9 5 8 3 9 -7 4 -11 -7 -11 -5 1 10 13 17 13 18 0 10 -13 -8 -13 -7 0 10 13
17 13 18 0 10 -13 -8 -13 -7 0 10 13 17 13 18 0 10 -8 -4 -12 -4 -7 0 16 18
46 14 62 -7 8 -13 15 -18 15 -12 0 5 -5 15 -10 20 -7 7 -6 11 4 11 8 0 12 -5
9 -10 -4 -6 -1 -7 7 -2 9 5 11 4 6 -3 -4 -7 -4 -17 0 -23 5 -8 9 -8 14 1 6 9
13 9 29 1 17 -9 20 -9 15 3 -3 8 -16 13 -28 12 -13 -2 -23 3 -23 10 0 7 5 10
11 7 6 -4 4 2 -4 12 -12 15 -12 17 -1 10 10 -5 12 -4 7 4 -4 6 -12 9 -17 6 -5
-4 -9 -2 -9 4 0 5 5 13 10 16 8 5 7 12 -2 22 -11 13 -15 12 -35 -13 -21 -26
-23 -27 -40 -11 -10 9 -19 26 -20 39 -2 18 0 20 8 8 7 -11 8 -8 5 13 -3 18 -1
25 6 21 7 -4 8 -2 4 4 -4 7 1 10 14 7 11 -2 23 1 26 7 5 7 2 8 -6 3 -9 -6 -11
-4 -5 5 5 8 4 11 -2 7 -6 -4 -9 3 -8 18 2 14 -2 23 -8 22 -7 -1 -11 4 -9 11 1
8 -2 11 -9 6 -8 -4 -9 -3 -5 4 5 8 1 10 -11 6 -15 -5 -16 -4 -3 5 10 7 11 11
3 11 -7 0 -13 8 -12 18 0 10 3 12 6 4 2 -6 9 -10 14 -6 5 3 9 2 8 -3 -4 -22 2
-25 16 -7 15 18 15 18 8 0 -4 -13 -3 -17 5 -12 6 3 13 2 17 -4 4 -6 10 -8 15
-5 5 3 11 1 15 -4 3 -6 13 -8 23 -5 15 5 15 4 2 -5 -12 -10 -8 -11 17 -7 18 2
35 1 37 -2 2 -4 33 -7 68 -6 34 0 69 -3 76 -9 8 -6 12 -5 12 4 0 11 2 11 9 -1
6 -8 8 -17 5 -21 -9 -15 25 -17 38 -2 11 15 11 16 -5 10 -11 -4 -16 -3 -12 3
3 6 1 10 -4 10 -6 0 -11 5 -11 12 0 6 3 8 7 5 3 -4 13 -1 22 6 14 11 14 10 2
-5 -17 -23 -3 -23 29 -1 21 14 23 14 12 1 -7 -8 -9 -24 -5 -33 5 -14 3 -17
-10 -12 -8 3 -20 0 -26 -7 -9 -11 -4 -14 26 -14 21 -1 46 -2 56 -2 9 -1 24 6
33 14 18 18 34 21 34 5 0 -5 -4 -8 -9 -5 -5 3 -15 -2 -22 -11 -12 -15 -12 -16
3 -10 10 3 30 0 45 -8 18 -10 22 -15 11 -15 -9 0 -20 4 -23 10 -3 5 -11 10
-18 10 -8 0 -8 -3 1 -12 7 -7 12 -16 12 -20 0 -4 -9 1 -20 12 -11 11 -28 20
-37 20 -16 -1 -16 -2 1 -15 11 -8 24 -15 29 -15 4 0 5 -4 2 -10 -3 -6 -11 -10
-16 -10 -6 0 -7 5 -4 10 3 5 1 10 -4 10 -6 0 -11 -4 -11 -10 0 -5 -5 -10 -11
-10 -8 0 -8 4 0 13 8 11 4 14 -20 14 -30 0 -30 -1 -13 -14 19 -14 19 -14 0
-11 -10 2 -21 -2 -23 -8 -2 -6 13 -10 38 -9 36 1 39 -1 23 -12 -13 -9 -21 -10
-31 -1 -10 8 -17 8 -26 -2 -7 -7 -7 -10 -1 -7 5 3 23 -5 39 -19 15 -13 23 -24
17 -24 -6 0 -14 4 -17 10 -3 6 -11 10 -17 10 -6 0 -3 -9 7 -20 12 -13 26 -18
43 -15 14 2 32 -1 39 -7 17 -14 16 2 -1 25 -14 18 -32 24 -21 7 3 -5 1 -10 -4
-10 -14 0 -14 17 0 25 5 4 21 -5 34 -19 13 -14 21 -26 17 -27 -4 0 2 -4 13 -9
18 -8 18 -9 -5 -8 -14 0 -32 -1 -40 -4 -8 -3 -12 -3 -7 -1 15 9 6 22 -13 20
-11 -1 -19 -6 -16 -13 4 -11 -34 -11 -52 0 -5 3 -16 -2 -23 -11 -12 -15 -12
-16 4 -10 11 4 24 0 34 -13 10 -11 21 -20 26 -20 5 0 4 7 -3 15 -9 10 -9 15
-1 15 6 0 11 -4 11 -10 0 -5 5 -10 11 -10 5 0 7 5 4 10 -4 7 3 9 19 6 14 -3
26 0 26 5 0 5 4 9 10 9 5 0 7 -7 3 -16 -3 -8 -11 -13 -18 -10 -7 2 -26 -4 -44
-15 -32 -20 -42 -35 -15 -25 8 3 13 2 10 -3 -6 -10 39 -32 48 -24 11 12 6 21
-11 19 -20 -1 -25 26 -5 30 7 1 8 0 2 -3 -19 -9 -10 -20 15 -20 20 0 23 2 14
13 -7 9 -8 14 -1 14 17 0 22 -28 7 -40 -15 -13 -11 -30 6 -30 6 0 8 4 5 9 -3
5 1 14 9 21 10 9 15 9 15 1 0 -6 -4 -11 -9 -11 -9 0 -5 -49 4 -59 3 -2 12 2
22 10 11 9 14 10 9 2 -4 -7 -2 -13 3 -13 6 0 11 -5 11 -11 0 -8 -6 -7 -17 2
-15 12 -16 12 -9 -5 7 -19 6 -19 -14 -1 -18 16 -30 8 -13 -9 4 -4 8 -15 8 -24
0 -13 7 -16 30 -14 16 2 35 8 41 13 6 5 14 6 17 2 4 -3 7 -1 7 6 0 8 7 11 15
7 8 -3 21 2 29 10 9 8 17 14 18 13 2 -2 14 0 27 4 16 4 22 11 18 21 -4 10 2
20 16 26 20 10 21 10 4 -3 -13 -11 -15 -17 -6 -22 7 -5 16 -1 21 9 5 9 13 14
17 11 11 -6 158 89 188 121 12 13 26 24 30 24 10 0 121 114 157 162 15 20 25
42 21 47 -3 6 0 9 7 6 18 -6 81 97 65 107 -8 5 -7 8 5 8 9 0 21 13 27 30 5 16
8 30 5 30 -2 0 6 10 18 22 26 26 29 26 95 -4 26 -12 50 -23 53 -23 9 -3 61
-25 116 -50 30 -14 57 -25 59 -25 3 0 5 279 5 620 0 341 -2 620 -4 620 -2 0
-48 -21 -103 -46 -54 -25 -127 -59 -162 -76 -34 -16 -64 -28 -66 -26 -1 2 -10
19 -20 38 -122 244 -385 476 -640 567 -188 67 -378 91 -550 67z m-685 -478 c0
-3 -4 -8 -10 -11 -5 -3 -10 -1 -10 4 0 6 5 11 10 11 6 0 10 -2 10 -4z m-40
-10 c0 -2 -8 -10 -17 -17 -16 -13 -17 -12 -4 4 13 16 21 21 21 13z m-106 -28
c-5 -8 -1 -9 12 -4 14 5 16 4 7 -5 -13 -13 -37 -3 -28 12 4 5 8 9 11 9 3 0 2
-5 -2 -12z m43 -9 c-4 -15 -2 -19 9 -15 10 4 12 2 8 -6 -5 -8 -1 -9 12 -4 14
5 16 4 8 -4 -18 -18 -54 5 -47 30 3 11 8 20 10 20 3 0 3 -9 0 -21z m95 0 c2
-2 1 -3 -1 -2 -2 2 -9 -2 -16 -7 -8 -7 -12 -5 -12 4 0 12 22 16 29 5z m-157
-36 c-6 -26 -5 -27 9 -10 10 13 21 17 35 12 l21 -6 -22 -20 c-22 -18 -22 -19
-3 -17 11 2 26 9 33 16 15 14 32 7 32 -13 0 -7 6 -16 13 -18 9 -4 9 -8 -2 -15
-8 -6 -9 -12 -3 -16 14 -9 33 19 26 38 -3 9 -1 16 5 16 6 0 10 -3 10 -7 -1 -5
-1 -15 0 -23 1 -12 4 -12 12 3 5 9 7 23 3 30 -5 9 -4 9 5 1 10 -9 10 -17 1
-34 -11 -20 -8 -26 24 -59 20 -21 33 -40 30 -44 -4 -4 -2 -7 4 -7 15 0 15 23
1 37 -8 8 -8 16 0 30 11 16 11 16 6 -5 -4 -15 -1 -24 9 -28 9 -3 13 -10 10
-15 -3 -5 -7 -17 -9 -28 -3 -19 -50 -71 -63 -71 -4 0 -16 8 -27 17 -15 12 -16
14 -3 10 13 -5 15 -2 11 11 -6 15 -5 15 10 3 9 -7 14 -18 10 -25 -3 -6 -2 -7
2 -3 13 11 15 38 3 31 -7 -5 -8 -2 -3 7 5 8 5 11 0 7 -4 -4 -14 -3 -21 3 -8 7
-14 6 -20 -2 -5 -8 -3 -9 6 -4 9 6 11 4 5 -4 -5 -9 -10 -10 -18 -2 -8 8 -16 6
-28 -5 -14 -12 -22 -13 -39 -4 -20 11 -20 13 -6 29 9 10 13 21 9 25 -8 7 -9
11 -12 37 -1 8 -5 9 -14 0 -8 -6 -17 -8 -20 -4 -4 3 -9 -1 -13 -10 -5 -14 -8
-15 -20 -2 -8 8 -13 18 -12 22 2 4 -1 8 -7 8 -5 0 -9 -5 -7 -12 1 -7 -7 -17
-18 -23 -11 -6 -20 -7 -21 -3 0 4 -2 16 -4 25 -2 11 2 15 11 11 8 -3 11 -10 7
-16 -3 -6 -1 -7 6 -3 6 4 8 13 4 19 -12 19 -12 37 -2 37 6 0 7 5 4 10 -3 6 -1
10 4 10 6 0 10 3 10 8 -2 9 22 72 27 72 2 0 2 -12 -1 -27z m220 17 c3 -5 1
-10 -4 -10 -6 0 -11 5 -11 10 0 6 2 10 4 10 3 0 8 -4 11 -10z m-97 -45 c-3 -3
-9 2 -12 12 -6 14 -5 15 5 6 7 -7 10 -15 7 -18z m156 -34 c3 -5 -2 -15 -12
-22 -15 -12 -16 -12 -5 2 7 9 10 19 6 22 -3 4 -4 7 0 7 3 0 8 -4 11 -9z m-55
-33 c-8 -15 -13 -17 -25 -7 -8 6 -14 14 -14 16 0 3 8 -1 17 -8 14 -12 16 -12
11 2 -4 9 -1 16 7 16 11 0 11 -5 4 -19z m85 -28 c2 -3 -9 -6 -25 -6 -16 -1
-29 2 -29 6 0 7 46 7 54 0z m87 -7 c12 -16 12 -17 -2 -6 -9 7 -20 9 -24 5 -5
-4 -5 -1 -1 6 9 16 11 15 27 -5z m-68 -23 c-3 -12 -8 -19 -11 -16 -5 6 5 36
12 36 2 0 2 -9 -1 -20z m72 -10 c3 -5 1 -10 -4 -10 -6 0 -11 5 -11 10 0 6 2
10 4 10 3 0 8 -4 11 -10z m-91 -16 c3 -8 2 -12 -4 -9 -6 3 -10 10 -10 16 0 14
7 11 14 -7z m50 -5 c-2 -4 0 -10 6 -14 5 -3 10 -1 10 6 0 7 3 10 6 6 3 -3 1
-14 -5 -24 -6 -11 -11 -13 -11 -5 0 7 -5 10 -12 6 -6 -4 -8 -3 -4 4 3 6 2 13
-4 17 -5 3 -10 -1 -10 -9 0 -9 -5 -16 -10 -16 -7 0 -7 6 -1 18 6 10 17 19 25
19 8 0 13 -4 10 -8z m-54 -103 c0 -6 -5 -4 -10 4 -8 13 -10 12 -10 -2 0 -10
-4 -18 -10 -18 -13 0 -13 17 0 25 8 5 7 11 -1 21 -6 7 -16 11 -22 7 -6 -4 -7
-1 -2 6 5 9 13 7 31 -10 13 -12 24 -27 24 -33z m65 4 c-4 -6 -12 -7 -18 -3 -7
4 -6 0 2 -10 9 -11 10 -17 2 -17 -6 0 -10 -3 -9 -7 1 -5 -2 -19 -6 -33 l-9
-25 -8 23 c-5 13 -13 20 -19 17 -5 -3 -10 -2 -10 3 0 6 7 12 15 16 8 3 15 1
15 -4 0 -6 4 -10 9 -10 5 0 8 14 6 30 -3 25 0 30 16 30 11 0 17 -5 14 -10z
m55 6 c0 -3 -4 -8 -10 -11 -5 -3 -10 -1 -10 4 0 6 5 11 10 11 6 0 10 -2 10 -4z
m-23 -56 c-1 -21 -10 -18 -13 5 -1 8 2 15 6 15 5 0 8 -9 7 -20z m-44 -35 c-3
-10 0 -15 8 -13 7 2 14 -3 15 -9 1 -7 2 -18 3 -24 0 -5 6 -7 11 -4 6 3 10 1
10 -4 0 -20 -16 -11 -39 19 -12 17 -19 35 -16 40 10 15 15 12 8 -5z m163 -10
c-1 -8 -8 -21 -16 -28 -10 -10 -11 -9 -4 3 5 8 9 18 10 23 3 14 4 17 8 17 2 0
3 -7 2 -15z m-49 -27 c-11 -15 -24 -25 -29 -22 -4 3 -11 -2 -14 -10 -3 -9 -11
-16 -17 -16 -5 0 -2 9 8 20 13 14 14 20 5 20 -7 0 -10 3 -7 6 4 4 14 1 24 -7
15 -12 16 -12 10 4 -5 12 -3 16 5 11 7 -5 9 -2 6 7 -4 9 1 15 12 15 16 0 16
-3 -3 -28z m77 4 c3 -5 -1 -9 -9 -9 -8 0 -12 4 -9 9 3 4 7 8 9 8 2 0 6 -4 9
-8z m-163 -43 c10 -6 6 -8 -11 -7 -14 1 -31 6 -37 11 -21 16 -15 -8 7 -28 11
-10 20 -13 20 -7 0 7 5 12 12 12 7 0 -8 -18 -32 -40 -24 -22 -46 -40 -48 -40
-7 0 33 49 41 50 4 0 7 5 7 11 0 6 -7 9 -15 6 -8 -4 -17 -1 -21 5 -4 7 -3 8 4
4 8 -5 11 1 9 16 -1 12 3 23 10 23 6 0 15 3 19 8 4 4 11 2 15 -4 3 -6 13 -15
20 -20z m90 0 c-5 -13 -10 -19 -10 -12 -1 15 10 45 15 40 3 -2 0 -15 -5 -28z
m109 27 c0 -2 -7 -7 -16 -10 -8 -3 -12 -2 -9 4 6 10 25 14 25 6z m-66 -19 c-3
-8 5 -25 16 -38 16 -18 20 -19 16 -6 -3 10 -2 16 3 13 5 -3 9 -17 9 -30 0 -13
9 -34 21 -47 11 -13 21 -27 21 -31 0 -5 -11 3 -24 18 l-23 28 0 -26 c0 -20 3
-25 16 -21 13 5 14 4 3 -8 -11 -12 -15 -11 -26 3 -12 16 -14 16 -29 0 -12 -11
-20 -13 -28 -5 -7 7 -6 15 6 27 9 9 13 16 9 16 -5 0 -3 5 4 12 17 17 15 24 -7
25 -13 1 -17 -3 -14 -17 7 -25 -16 -36 -31 -14 -14 19 -56 30 -56 14 0 -6 5
-10 10 -10 6 0 10 -5 10 -10 0 -6 -8 -5 -19 2 -15 9 -17 15 -9 25 16 19 2 28
-16 10 -14 -13 -14 -18 0 -46 9 -17 20 -31 26 -31 6 0 5 7 -3 18 -12 15 -12
16 2 5 9 -7 20 -9 25 -5 4 4 2 -1 -5 -10 -19 -26 -28 -23 -54 19 l-24 38 28
21 c16 11 26 23 24 26 -3 3 6 4 20 2 20 -2 25 1 21 12 -3 9 -2 12 5 9 6 -4 8
-13 5 -20 -3 -9 5 -12 27 -10 17 1 33 7 35 14 2 7 -3 9 -15 5 -15 -5 -15 -4
-3 5 8 6 11 11 5 11 -5 0 -3 5 5 10 20 13 20 12 14 -3z m122 -2 c-3 -23 -22
-39 -31 -26 -3 7 -1 10 6 9 7 -2 14 3 15 10 2 19 4 22 8 22 2 0 3 -7 2 -15z
m-59 -9 c-3 -8 1 -17 9 -20 9 -3 12 -11 8 -18 -5 -8 -2 -9 10 -5 11 4 15 3 11
-4 -4 -6 -14 -8 -22 -5 -9 4 -13 1 -10 -6 2 -7 10 -12 16 -10 6 1 11 -2 11 -8
0 -15 -16 -12 -30 5 -9 11 -10 18 -1 29 9 10 8 15 -4 19 -13 6 -11 37 2 37 3
0 3 -6 0 -14z m78 -26 c-3 -5 -12 -10 -18 -10 -7 0 -6 4 3 10 19 12 23 12 15
0z m52 -11 c-9 -6 -14 -16 -11 -22 4 -7 3 -8 -1 -4 -17 15 -12 33 9 34 19 2
19 1 3 -8z m-47 -35 c0 -8 5 -14 10 -14 6 0 10 -4 10 -10 0 -21 -20 -9 -26 16
-5 18 -10 22 -17 15 -8 -8 -8 -14 1 -23 7 -7 12 -19 12 -27 0 -9 -8 -1 -17 17
-14 28 -14 35 -3 42 17 11 30 4 30 -16z m63 11 c-3 -9 -8 -14 -10 -11 -3 3 -2
9 2 15 9 16 15 13 8 -4z m38 -51 c-11 -15 -21 -22 -21 -17 0 6 7 16 16 24 10
8 13 22 10 38 -5 25 -5 25 6 4 8 -18 7 -27 -11 -49z m-29 -2 c-5 -13 -7 -13
-12 3 -4 12 -9 15 -13 8 -4 -6 0 -19 9 -27 8 -9 11 -16 5 -16 -5 0 -14 7 -19
16 -6 11 -11 13 -16 5 -9 -14 -26 -14 -26 0 0 5 4 8 9 5 12 -8 34 21 26 34 -4
7 2 6 19 -1 16 -8 22 -17 18 -27z m25 32 c-3 -3 -12 -4 -19 -1 -8 3 -5 6 6 6
11 1 17 -2 13 -5z m-296 -42 c2 2 -5 -7 -16 -18 -11 -12 -22 -19 -25 -17 -3 3
3 10 12 17 11 8 14 17 7 27 -5 8 -9 19 -8 24 0 6 5 0 12 -13 7 -12 15 -21 18
-20z m159 13 c0 -8 -2 -15 -4 -15 -2 0 -6 7 -10 15 -3 8 -1 15 4 15 6 0 10 -7
10 -15z m171 -3 c-5 -10 -17 -25 -26 -32 -13 -11 -13 -15 -3 -21 9 -6 9 -9 1
-9 -24 0 -23 20 4 49 32 35 38 38 24 13z m-431 -12 c0 -5 -4 -10 -10 -10 -5 0
-10 5 -10 10 0 6 5 10 10 10 6 0 10 -4 10 -10z m511 -13 c-17 -17 -13 -31 4
-17 9 7 17 11 20 9 10 -11 -32 -27 -46 -18 -12 8 -11 11 4 20 9 6 14 15 11 21
-5 7 -2 8 5 3 9 -5 10 -10 2 -18z m-531 -13 c0 -2 -9 0 -20 6 -11 6 -20 13
-20 16 0 2 9 0 20 -6 11 -6 20 -13 20 -16z m480 16 c0 -5 0 -13 0 -17 0 -5 -9
-9 -20 -9 -11 -1 -20 3 -20 8 0 5 10 6 22 2 20 -6 21 -5 9 10 -9 10 -10 16 -2
16 6 0 11 -4 11 -10z m-170 -10 c8 -5 11 -13 6 -17 -5 -4 -11 -2 -13 5 -3 6
-9 12 -14 12 -6 0 -7 -4 -4 -10 3 -6 -1 -7 -10 -3 -13 5 -14 7 -3 14 16 11 20
11 38 -1z m-270 -10 c0 -5 -4 -10 -10 -10 -5 0 -10 5 -10 10 0 6 5 10 10 10 6
0 10 -4 10 -10z m150 0 c-8 -5 -19 -10 -25 -10 -5 0 -3 5 5 10 8 5 20 10 25
10 6 0 3 -5 -5 -10z m87 -44 c2 -16 1 -18 -6 -6 -5 8 -8 17 -5 21 2 4 -3 9
-11 13 -8 3 -15 10 -15 16 0 19 34 -21 37 -44z m83 50 c0 -2 -7 -7 -16 -10 -8
-3 -12 -2 -9 4 6 10 25 14 25 6z m237 -14 c-1 -14 -7 -17 -25 -14 -19 4 -23 2
-17 -8 5 -9 4 -11 -4 -6 -16 10 -4 26 20 26 10 0 19 5 19 10 0 6 2 10 4 10 3
0 4 -8 3 -18z m-444 -21 c-2 -6 6 -11 17 -11 11 0 19 6 18 13 -2 7 7 12 20 12
12 0 21 -4 20 -8 -2 -5 5 -13 15 -18 9 -6 17 -14 17 -19 0 -6 -9 -2 -19 7 -11
9 -18 20 -15 25 3 4 -4 8 -15 8 -12 0 -20 -6 -18 -12 1 -8 -8 -13 -23 -13 -15
0 -24 5 -22 13 1 6 -7 12 -17 12 -11 0 -22 4 -25 9 -4 6 5 6 21 2 16 -5 27
-13 26 -20z m-137 1 c1 -7 0 -8 -3 -2 -8 17 -19 11 -20 -10 -1 -13 2 -18 9
-14 7 4 8 2 4 -5 -4 -6 -12 -9 -17 -6 -7 5 -7 20 0 53 2 9 25 -6 27 -16z m57
-1 c-2 -6 2 -11 7 -11 6 0 10 6 11 13 0 9 2 9 6 -1 2 -6 10 -9 15 -6 6 4 8 3
5 -3 -9 -14 -53 -10 -49 5 2 14 -14 16 -23 3 -3 -5 -1 -12 5 -16 13 -8 13 -25
-1 -25 -5 0 -8 4 -4 9 3 5 1 13 -5 16 -8 5 -7 11 1 21 13 16 35 13 32 -5z
m319 0 c-2 -9 3 -11 15 -7 17 6 17 5 1 -7 -10 -8 -14 -18 -10 -22 4 -5 2 -5
-5 -1 -6 3 -10 15 -8 26 3 14 -2 20 -16 20 -10 0 -18 -6 -16 -12 1 -7 -4 -13
-12 -13 -8 0 -15 6 -17 13 -1 7 0 8 3 2 5 -12 24 -14 22 -2 -3 18 3 23 24 20
12 -2 21 -9 19 -17z m-95 -13 c-3 -8 -6 -5 -6 6 -1 11 2 17 5 13 3 -3 4 -12 1
-19z m163 7 c0 -8 -4 -15 -8 -15 -5 0 -9 7 -9 15 0 8 4 15 9 15 4 0 8 -7 8
-15z m37 8 c-4 -3 1 -12 11 -20 15 -13 15 -13 -5 -3 -24 11 -31 30 -11 30 6 0
8 -3 5 -7z m-357 -33 c0 -5 -4 -10 -10 -10 -5 0 -10 5 -10 10 0 6 5 10 10 10
6 0 10 -4 10 -10z m80 0 c0 -5 -4 -10 -10 -10 -5 0 -10 5 -10 10 0 6 5 10 10
10 6 0 10 -4 10 -10z m93 -5 c-3 -9 -8 -14 -10 -11 -3 3 -2 9 2 15 9 16 15 13
8 -4z m258 -2 c13 -16 12 -17 -3 -4 -10 7 -18 15 -18 17 0 8 8 3 21 -13z
m-531 -14 c12 -8 10 -9 -7 -4 -19 5 -22 3 -17 -12 5 -14 4 -15 -4 -3 -19 25 0
38 28 19z m58 -3 c-7 -8 -15 -12 -17 -11 -5 6 10 25 20 25 5 0 4 -6 -3 -14z
m92 -1 c0 -8 -2 -15 -4 -15 -2 0 -6 7 -10 15 -3 8 -1 15 4 15 6 0 10 -7 10
-15z m91 -17 c-10 -11 -11 -9 -5 6 6 15 4 17 -6 11 -9 -6 -11 -4 -5 4 5 9 10
10 18 2 8 -8 7 -14 -2 -23z m96 25 c-4 -3 -2 -11 3 -18 7 -8 5 -12 -5 -12 -8
0 -12 4 -9 9 3 4 0 8 -6 8 -6 0 -8 5 -5 10 3 6 11 10 17 10 6 0 8 -3 5 -7z
m49 -11 c0 -10 -6 -19 -13 -19 -8 0 -9 6 -2 19 5 10 11 18 12 18 2 0 3 -8 3
-18z m51 3 c0 -8 -4 -12 -9 -9 -5 3 -6 10 -3 15 9 13 12 11 12 -6z m-234 -16
c-8 -8 -13 -7 -18 2 -5 8 -4 10 3 5 7 -4 12 -2 12 5 0 7 3 9 7 6 4 -4 2 -12
-4 -18z m-239 -16 l17 -28 -19 22 c-11 12 -23 19 -27 15 -5 -4 -5 -1 -1 6 10
17 11 16 30 -15z m176 -8 c0 -5 -5 -3 -10 5 -5 8 -10 20 -10 25 0 6 5 3 10 -5
5 -8 10 -19 10 -25z m40 10 c14 -19 14 -19 -2 -6 -10 7 -18 18 -18 24 0 6 1 8
3 6 1 -2 9 -13 17 -24z m117 3 c2 -18 0 -20 -7 -8 -12 18 -13 30 -2 30 4 0 9
-10 9 -22z m-271 -25 c-6 -6 -36 9 -36 18 0 5 9 4 20 -3 10 -7 18 -14 16 -15z
m88 11 c3 -7 -3 -10 -15 -7 -26 7 -32 19 -9 19 11 0 22 -6 24 -12z m106 6 c0
-5 -5 -10 -11 -10 -5 0 -7 5 -4 10 3 6 8 10 11 10 2 0 4 -4 4 -10z m120 -4 c0
-2 -8 -10 -17 -17 -16 -13 -17 -12 -4 4 13 16 21 21 21 13z m-273 -12 c-3 -3
-12 -4 -19 -1 -8 3 -5 6 6 6 11 1 17 -2 13 -5z m107 -16 c-5 -7 -2 -9 8 -6 8
4 15 0 15 -8 0 -7 -4 -11 -9 -8 -5 3 -17 0 -26 -8 -16 -12 -16 -11 -2 6 13 18
13 19 -1 14 -9 -4 -16 -1 -16 7 0 8 7 11 15 7 11 -4 13 -1 7 8 -5 9 -4 11 4 6
6 -4 8 -12 5 -18z m81 -6 c-3 -3 1 -12 8 -21 11 -14 10 -14 -6 -2 -9 8 -15 16
-12 19 3 3 -1 12 -8 21 -11 14 -10 14 6 2 9 -8 15 -16 12 -19z m29 2 c3 -8 2
-12 -4 -9 -6 3 -10 10 -10 16 0 14 7 11 14 -7z m76 12 c0 -2 -8 -10 -17 -17
-16 -13 -17 -12 -4 4 13 16 21 21 21 13z m-263 -31 c0 -8 -4 -15 -9 -15 -10 0
-11 14 -1 23 9 10 10 9 10 -8z m380 0 c0 -8 -4 -12 -9 -9 -5 3 -6 10 -3 15 9
13 12 11 12 -6z m-421 -37 c1 -8 -4 -15 -12 -15 -11 0 -11 3 -1 16 10 12 9 14
-4 9 -9 -4 -16 -1 -16 8 0 18 30 2 33 -18z m171 10 c-3 -8 -6 -5 -6 6 -1 11 2
17 5 13 3 -3 4 -12 1 -19z m-30 -5 c0 -9 -4 -10 -14 -2 -7 6 -13 12 -13 14 0
1 6 2 13 2 8 0 14 -6 14 -14z m117 9 c3 -5 -1 -9 -9 -9 -8 0 -12 4 -9 9 3 4 7
8 9 8 2 0 6 -4 9 -8z m-216 -15 c8 -10 6 -13 -7 -13 -11 0 -17 6 -14 13 3 7 6
13 8 13 1 0 7 -6 13 -13z m37 4 c3 -5 2 -12 -3 -15 -5 -3 -9 1 -9 9 0 17 3 19
12 6z m57 -26 c2 3 5 -2 5 -10 0 -10 -4 -12 -12 -5 -7 5 -16 6 -21 2 -5 -4 -6
-3 -2 2 4 5 2 16 -4 25 -10 12 -7 12 8 -2 11 -9 23 -15 26 -12z m248 21 c0 -3
-4 -8 -10 -11 -5 -3 -10 -1 -10 4 0 6 5 11 10 11 6 0 10 -2 10 -4z m-427 -21
c-3 -9 -8 -14 -10 -11 -3 3 -2 9 2 15 9 16 15 13 8 -4z m222 6 c3 -5 2 -12 -3
-15 -5 -3 -9 1 -9 9 0 17 3 19 12 6z m416 -18 c13 -16 12 -17 -3 -4 -17 13
-22 21 -14 21 2 0 10 -8 17 -17z m-553 -20 c-12 -15 -22 -18 -14 -4 4 5 0 11
-6 14 -7 3 -3 4 9 4 17 -1 19 -4 11 -14z m47 7 c3 -6 -1 -7 -9 -4 -18 7 -21
14 -7 14 6 0 13 -4 16 -10z m-74 -27 c13 -16 12 -17 -3 -4 -10 7 -18 15 -18
17 0 8 8 3 21 -13z m123 9 c3 -5 -1 -9 -9 -9 -8 0 -12 4 -9 9 3 4 7 8 9 8 2 0
6 -4 9 -8z m-178 -17 c-1 -8 -5 -17 -8 -21 -5 -4 -4 16 1 34 3 9 9 -1 7 -13z
m362 -10 c-3 -3 -9 2 -12 12 -6 14 -5 15 5 6 7 -7 10 -15 7 -18z m-161 -7 c2
-17 0 -19 -7 -8 -5 8 -6 18 -4 22 8 12 10 10 11 -14z m-85 -3 c2 3 5 -2 5 -10
0 -19 0 -19 -23 7 -12 14 -13 18 -3 10 9 -6 18 -10 21 -7z m122 -11 c3 -8 2
-12 -4 -9 -6 3 -10 10 -10 16 0 14 7 11 14 -7z m816 12 c0 -2 -8 -10 -17 -17
-16 -13 -17 -12 -4 4 13 16 21 21 21 13z m-650 -31 c0 -2 -9 -3 -19 -2 -11 0
-18 5 -15 9 4 6 34 0 34 -7z m840 5 c0 -5 -2 -10 -4 -10 -3 0 -8 5 -11 10 -3
6 -1 10 4 10 6 0 11 -4 11 -10z m94 -6 c3 -8 2 -12 -4 -9 -6 3 -10 10 -10 16
0 14 7 11 14 -7z m-36 -19 c-3 -3 -9 2 -12 12 -6 14 -5 15 5 6 7 -7 10 -15 7
-18z m-23 6 c3 -5 2 -12 -3 -15 -5 -3 -9 1 -9 9 0 17 3 19 12 6z m-1110 -21
c-3 -5 -12 -10 -18 -10 -7 0 -6 4 3 10 19 12 23 12 15 0z m155 0 c0 -5 -2 -10
-4 -10 -3 0 -8 5 -11 10 -3 6 -1 10 4 10 6 0 11 -4 11 -10z m926 -2 c3 -4 -1
-5 -10 -4 -8 1 -18 5 -22 8 -3 4 1 5 10 4 8 -1 18 -5 22 -8z m-89 -43 c0 -8
-4 -12 -9 -9 -5 3 -6 10 -3 15 9 13 12 11 12 -6z m121 -5 c-7 -10 -14 -17 -17
-15 -4 4 18 35 25 35 2 0 -1 -9 -8 -20z m82 16 c0 -2 -7 -7 -16 -10 -8 -3 -12
-2 -9 4 6 10 25 14 25 6z m85 -6 c3 -6 -1 -7 -9 -4 -18 7 -21 14 -7 14 6 0 13
-4 16 -10z m-1167 -25 c-3 -3 -9 2 -12 12 -6 14 -5 15 5 6 7 -7 10 -15 7 -18z
m806 7 c3 -5 -1 -9 -9 -9 -8 0 -12 4 -9 9 3 4 7 8 9 8 2 0 6 -4 9 -8z m141 -1
c-9 -8 -36 -10 -30 -2 2 4 11 8 20 8 8 0 13 -3 10 -6z m146 -8 c13 -16 12 -17
-3 -4 -17 13 -22 21 -14 21 2 0 10 -8 17 -17z m34 7 c3 -6 -1 -7 -9 -4 -18 7
-21 14 -7 14 6 0 13 -4 16 -10z m-1141 -18 c3 -5 -1 -9 -9 -9 -8 0 -12 4 -9 9
3 4 7 8 9 8 2 0 6 -4 9 -8z m1251 -10 c-3 -3 -11 0 -18 7 -9 10 -8 11 6 5 10
-3 15 -9 12 -12z m-1414 -27 c10 -4 19 -11 19 -16 0 -6 4 -7 10 -4 6 3 7 -1 4
-10 -5 -11 0 -18 15 -22 11 -3 21 -10 21 -16 0 -6 -3 -7 -7 -4 -3 4 -15 -1
-26 -10 -20 -17 -20 -17 -14 0 10 27 -9 58 -31 50 -15 -6 -15 -4 -4 9 11 14
10 16 -12 14 -14 -2 -32 -9 -41 -16 -10 -8 -15 -9 -15 -1 0 6 -5 11 -11 11 -8
0 -8 -4 0 -13 8 -11 5 -14 -19 -14 l-30 0 22 24 c12 13 29 21 37 18 9 -2 23 0
31 5 8 5 11 10 5 10 -5 0 -3 5 5 10 11 7 16 5 18 -5 2 -8 12 -17 23 -20z
m1372 20 c-3 -9 -8 -14 -10 -11 -3 3 -2 9 2 15 9 16 15 13 8 -4z m-313 1 c0
-2 -7 -7 -16 -10 -8 -3 -12 -2 -9 4 6 10 25 14 25 6z m281 -9 c-6 -8 -9 -16
-6 -19 3 -2 -2 -5 -10 -5 -13 0 -13 3 2 19 19 21 31 25 14 5z m-320 -14 c13
-17 13 -17 -6 -3 -11 8 -22 16 -24 17 -2 2 0 3 6 3 6 0 17 -8 24 -17z m-851 1
c0 -8 -19 -13 -24 -6 -3 5 1 9 9 9 8 0 15 -2 15 -3z m785 -3 c3 -5 2 -12 -3
-15 -5 -3 -9 1 -9 9 0 17 3 19 12 6z m256 -14 c-10 -9 -11 -8 -5 6 3 10 9 15
12 12 3 -3 0 -11 -7 -18z m-1239 -6 c-11 -7 -10 -10 3 -15 9 -3 22 -3 27 1 7
3 8 1 4 -5 -4 -7 -3 -12 1 -12 5 0 9 -16 10 -36 1 -19 -2 -32 -5 -29 -4 4 -7
11 -7 16 0 5 -3 9 -7 9 -5 0 -13 0 -20 0 -6 0 -3 -7 8 -16 17 -14 17 -15 1
-10 -10 3 -22 6 -26 6 -13 0 -9 37 5 38 8 1 21 3 29 4 17 2 11 11 -8 14 -7 1
-19 5 -28 8 -24 10 -54 -28 -40 -51 6 -10 11 -12 11 -5 0 20 16 14 17 -7 1
-14 -3 -18 -13 -14 -14 5 -19 -7 -14 -36 1 -13 -1 -13 -14 -2 -12 10 -13 17
-5 27 7 9 7 19 -1 34 -10 19 -7 26 25 56 20 19 42 34 48 34 8 0 8 -3 -1 -9z
m144 -17 c1 -9 0 -13 -4 -10 -3 4 -7 14 -8 22 -1 9 0 13 4 10 3 -4 7 -14 8
-22z m1074 23 c0 -2 -10 -12 -22 -23 l-23 -19 19 23 c18 21 26 27 26 19z m60
-1 c0 -2 -8 -10 -17 -17 -16 -13 -17 -12 -4 4 13 16 21 21 21 13z m-272 -31
c-3 -3 -9 2 -12 12 -6 14 -5 15 5 6 7 -7 10 -15 7 -18z m-44 3 c-5 -7 -2 -9 8
-6 8 4 15 1 15 -7 0 -7 -6 -11 -14 -8 -9 4 -11 0 -7 -11 3 -9 2 -16 -3 -16 -6
0 -9 12 -7 28 2 32 2 32 10 32 3 0 2 -5 -2 -12z m159 -5 c-3 -7 -6 -13 -8 -13
-2 0 -5 6 -8 13 -3 8 1 14 8 14 7 0 11 -6 8 -14z m232 -30 c-18 -17 -18 -17
-6 0 11 14 11 20 0 35 -12 16 -12 16 6 0 19 -18 19 -18 0 -35z m99 35 c-3 -4
-9 -8 -15 -8 -5 0 -9 4 -9 8 0 5 7 9 15 9 8 0 12 -4 9 -9z m-1524 -6 c0 -4 -5
-13 -11 -19 -8 -8 -8 -17 0 -32 9 -16 8 -26 -4 -45 -14 -21 -14 -25 -1 -39 12
-11 13 -16 3 -20 -9 -3 -9 -8 2 -20 7 -10 9 -17 3 -17 -13 0 -33 25 -26 33 3
3 1 14 -5 25 -8 16 -6 25 8 44 14 18 17 28 9 39 -8 11 -9 11 -4 -3 6 -21 -5
-23 -22 -6 -14 14 -16 32 -2 23 5 -3 15 5 22 19 11 25 28 35 28 18z m275 -1
c3 -5 2 -12 -3 -15 -5 -3 -9 1 -9 9 0 17 3 19 12 6z m938 -6 c-3 -9 -8 -14
-10 -11 -3 3 -2 9 2 15 9 16 15 13 8 -4z m-1147 -7 c4 -7 3 -10 -1 -5 -5 4
-17 0 -27 -10 -20 -18 -25 -4 -6 15 15 15 25 15 34 0z m1414 4 c0 -5 -7 -9
-15 -9 -8 0 -12 4 -9 9 3 4 9 8 15 8 5 0 9 -4 9 -8z m-1284 -27 c-3 -8 2 -11
15 -8 11 3 19 0 19 -6 0 -7 -4 -9 -10 -6 -5 3 -15 -6 -22 -20 -8 -18 -14 -22
-20 -13 -11 19 -10 30 3 22 8 -4 8 0 0 15 -7 12 -9 26 -6 31 9 14 27 1 21 -15z
m899 16 c3 -5 0 -13 -6 -17 -7 -4 -9 -3 -5 4 3 5 0 13 -6 15 -9 4 -10 6 -1 6
6 1 14 -3 18 -8z m457 -8 c-1 -4 7 -17 16 -28 17 -20 17 -20 -4 -2 -11 9 -21
24 -21 32 0 8 2 13 5 11 2 -2 4 -8 4 -13z m-1387 -33 c-4 -6 3 -26 14 -45 11
-19 16 -35 12 -35 -5 0 -11 7 -15 15 -3 9 -12 12 -23 8 -16 -6 -16 -5 -4 11
11 13 12 19 2 29 -10 9 -11 8 -5 -8 7 -18 6 -19 -12 -5 -18 14 -18 14 -5 -2 8
-11 9 -18 3 -18 -6 0 -13 4 -17 9 -3 6 -14 8 -25 6 -12 -2 -18 0 -15 5 4 6 -2
7 -12 3 -14 -5 -16 -3 -6 7 10 11 15 11 28 0 10 -8 15 -9 15 -1 0 6 3 10 8 10
20 -3 33 2 27 11 -4 6 -1 18 6 26 11 14 13 14 21 0 5 -9 6 -21 3 -26z m840 11
c-6 -5 -25 10 -25 20 0 5 6 4 14 -3 8 -7 12 -15 11 -17z m105 4 c-7 -8 -16
-15 -21 -15 -5 0 -1 8 9 18 20 22 31 19 12 -3z m215 15 c-4 -6 -1 -19 7 -28
11 -15 11 -15 -3 -5 -9 7 -18 11 -21 8 -3 -3 -11 3 -19 12 -13 16 -12 17 2 5
14 -10 18 -10 23 3 3 8 8 15 11 15 4 0 3 -5 0 -10z m45 5 c0 -2 -6 -8 -13 -14
-10 -8 -14 -7 -14 2 0 8 6 14 14 14 7 0 13 -1 13 -2z m24 -4 c3 -4 -4 -17 -17
-27 -22 -19 -22 -19 -4 2 9 11 14 24 10 27 -3 4 -4 7 0 7 3 0 8 -4 11 -9z m63
-16 c0 -8 -3 -13 -5 -10 -3 3 -12 -1 -21 -7 -10 -8 -9 -4 3 10 23 26 23 26 23
7z m-902 -5 c3 -5 1 -10 -4 -10 -6 0 -11 5 -11 10 0 6 2 10 4 10 3 0 8 -4 11
-10z m399 -5 c-4 -8 -8 -15 -10 -15 -2 0 -4 7 -4 15 0 8 4 15 10 15 5 0 7 -7
4 -15z m322 -11 c1 -9 0 -13 -4 -10 -3 4 -7 14 -8 22 -1 9 0 13 4 10 3 -4 7
-14 8 -22z m-1022 -18 c-5 -14 -9 -15 -16 -4 -6 9 -7 5 -3 -11 5 -15 3 -21 -3
-17 -6 3 -13 2 -17 -4 -10 -17 -24 -2 -18 21 5 16 8 18 15 7 7 -9 8 -7 5 10
-3 12 -1 20 3 17 5 -3 12 0 15 6 11 17 27 -5 19 -25z m666 24 c0 -5 -5 -10
-11 -10 -5 0 -7 5 -4 10 3 6 8 10 11 10 2 0 4 -4 4 -10z m57 3 c-4 -3 1 -12
11 -20 15 -11 15 -14 2 -25 -8 -7 -16 -21 -18 -31 -3 -15 0 -16 17 -5 11 6 18
15 16 18 -2 4 5 14 16 23 10 9 19 12 19 7 0 -6 -7 -13 -15 -16 -8 -4 -13 -10
-10 -14 3 -4 -6 -15 -20 -24 -13 -9 -26 -12 -29 -8 -8 14 0 43 15 53 12 8 11
11 -4 20 -15 9 -16 29 0 29 4 0 3 -3 0 -7z m46 -14 c-8 -8 -13 -7 -18 2 -5 8
-4 10 3 5 7 -4 12 -2 12 5 0 7 3 9 7 6 4 -4 2 -12 -4 -18z m62 -1 c6 -5 0 -7
-12 -5 -12 2 -26 7 -30 12 -5 4 -2 5 5 1 7 -4 12 -2 12 5 0 7 3 8 8 3 4 -5 12
-12 17 -16z m71 13 c-4 -5 0 -11 6 -14 7 -3 3 -4 -8 -4 -21 1 -23 27 -2 27 5
0 7 -4 4 -9z m-862 -46 c1 -8 12 -22 24 -32 21 -17 41 -70 23 -58 -5 2 -14 -2
-21 -10 -7 -8 -9 -15 -5 -15 4 0 3 -6 -2 -12 -17 -21 -11 -46 15 -70 l24 -23
23 29 c14 18 25 24 29 17 4 -6 0 -14 -9 -17 -14 -6 -14 -8 0 -24 14 -16 12
-17 -30 -15 -50 3 -62 -7 -60 -50 0 -36 13 -58 27 -49 6 4 8 2 4 -4 -3 -6 -15
-9 -26 -7 -23 4 -47 -20 -30 -30 8 -5 8 -11 -1 -21 -10 -12 -8 -19 9 -37 15
-15 18 -27 12 -37 -5 -9 -5 -19 1 -26 7 -9 5 -11 -8 -9 -10 2 -19 4 -20 5 -2
2 -7 4 -13 5 -5 1 -12 4 -15 5 -3 1 -9 3 -13 4 -5 0 -20 12 -33 26 -13 15 -18
18 -10 8 20 -26 5 -35 -20 -12 -12 10 -24 19 -27 19 -4 0 -6 6 -4 12 3 12 -10
17 -30 14 -5 0 -8 3 -8 9 0 5 -5 10 -10 10 -6 0 -9 -3 -9 -7 4 -22 -5 -20 -51
8 -28 17 -48 35 -45 39 3 5 1 11 -5 15 -6 4 -8 11 -5 16 4 5 2 9 -4 9 -5 0
-13 -5 -16 -10 -4 -7 -13 -7 -26 0 -11 6 -23 8 -28 5 -5 -3 -7 4 -4 14 3 13
-1 21 -14 25 -11 3 -27 21 -37 39 -9 17 -15 24 -12 15 6 -21 -10 -34 -17 -15
-6 17 7 40 25 43 7 1 19 3 27 5 7 2 16 -2 19 -10 2 -8 0 -11 -5 -8 -14 9 -37
-9 -29 -22 4 -6 12 -8 18 -5 8 5 9 1 5 -10 -4 -9 -3 -15 2 -12 5 3 12 -1 15
-10 5 -12 9 -14 20 -5 10 9 17 7 27 -5 11 -13 10 -15 -3 -12 -9 1 -17 -1 -17
-7 -1 -8 19 -11 46 -6 3 1 -1 9 -11 20 -16 17 -15 20 3 42 11 13 20 19 21 14
0 -6 -5 -16 -11 -22 -9 -9 -6 -19 10 -42 12 -17 19 -36 15 -42 -4 -8 -3 -9 4
-5 11 7 17 -6 13 -27 -1 -5 4 -5 10 -1 8 5 10 2 5 -7 -4 -8 0 -5 9 6 16 20 17
20 13 0 -2 -16 3 -20 32 -21 19 -1 40 -2 45 -4 6 -1 14 -2 18 -1 5 1 5 -4 1
-10 -4 -8 -3 -9 4 -5 8 4 10 2 6 -7 -3 -8 0 -18 7 -23 8 -4 10 -3 5 4 -15 25
6 31 27 9 12 -13 16 -15 8 -5 -8 10 -10 18 -5 18 5 0 1 5 -8 11 -10 5 -18 15
-18 22 0 8 3 7 9 -2 5 -8 14 -10 21 -6 9 6 11 4 5 -5 -6 -9 -4 -11 5 -5 9 6
11 4 5 -5 -6 -9 -4 -11 5 -5 9 6 11 4 5 -6 -7 -11 -6 -12 7 -2 8 7 18 10 21 6
4 -3 7 -1 7 5 0 7 -4 12 -10 12 -5 0 -10 5 -10 11 0 5 4 8 9 4 5 -3 13 0 17 6
4 7 3 9 -4 5 -7 -4 -10 1 -7 14 2 11 0 18 -4 16 -4 -3 -8 1 -8 9 0 8 5 12 10
8 5 -3 4 4 -2 15 -15 28 -14 31 7 27 9 -2 19 -4 22 -4 3 -1 -2 -6 -10 -11 -13
-8 -13 -11 -1 -22 11 -11 13 -11 6 1 -5 9 -4 12 2 8 10 -6 12 30 2 48 -3 6 -5
21 -4 35 0 14 -4 28 -10 32 -6 5 -5 8 4 8 9 0 7 5 -6 18 -10 9 -13 13 -6 9 16
-12 34 1 31 21 -2 9 2 16 9 15 7 -2 10 4 7 12 -4 9 0 15 7 15 11 0 11 3 -1 10
-12 7 -12 10 -1 10 8 0 11 6 7 16 -4 10 -2 13 6 8 7 -4 8 -3 4 5 -4 6 -11 9
-16 6 -12 -7 -32 30 -22 40 4 5 2 5 -5 1 -7 -4 -10 -13 -7 -20 3 -8 -2 -13
-13 -13 -35 0 -44 -3 -38 -13 4 -6 -1 -7 -12 -4 -11 3 -14 2 -8 -3 12 -9 13
-28 3 -39 -7 -6 -12 9 -10 28 2 11 -27 18 -33 7 -7 -11 -25 -2 -25 12 0 6 5 7
12 3 6 -4 8 -3 4 4 -3 6 -1 14 5 18 7 4 9 3 6 -3 -4 -6 0 -13 8 -17 17 -6 45
2 45 14 0 5 9 7 20 5 12 -2 20 1 18 8 -1 7 2 23 6 36 8 22 9 23 18 7 6 -10 11
-24 12 -31z m1116 41 c0 -2 -8 -10 -17 -17 -16 -13 -17 -12 -4 4 13 16 21 21
21 13z m-294 -35 c-4 -6 -13 -11 -19 -11 -8 0 -7 3 2 9 8 5 10 14 6 22 -6 11
-5 11 5 2 7 -6 9 -16 6 -22z m97 16 c4 3 7 1 7 -5 0 -17 -16 -15 -31 6 -12 15
-12 16 2 5 9 -7 19 -10 22 -6z m102 3 c3 -6 -1 -7 -9 -4 -18 7 -21 14 -7 14 6
0 13 -4 16 -10z m-1372 -39 c-1 -17 3 -29 8 -26 5 4 9 1 9 -4 0 -6 -5 -11 -11
-11 -7 0 0 -9 15 -21 14 -11 30 -18 35 -15 11 7 41 -3 41 -13 0 -4 -7 -8 -15
-8 -8 0 -15 4 -15 8 0 5 -6 6 -12 4 -7 -3 -26 4 -42 14 -25 17 -30 27 -31 66
-1 29 2 44 9 42 6 -2 10 -18 9 -36z m137 15 c0 4 2 5 5 2 8 -8 -6 -38 -17 -38
-5 0 -7 4 -4 9 3 5 -1 11 -9 15 -8 3 -17 0 -21 -6 -4 -6 -3 -8 3 -5 6 4 13 0
17 -8 6 -16 -9 -21 -19 -5 -3 5 -12 7 -19 4 -7 -3 -19 2 -26 11 -8 9 -8 15 -2
15 6 0 14 -5 17 -10 9 -14 27 -1 21 15 -8 21 5 25 30 8 13 -8 24 -12 24 -7z
m820 14 c0 -5 -4 -10 -10 -10 -5 0 -10 5 -10 10 0 6 5 10 10 10 6 0 10 -4 10
-10z m40 2 c0 -4 -9 -15 -20 -25 -11 -9 -20 -12 -20 -7 0 6 7 13 15 16 8 4 12
10 9 15 -3 5 0 9 5 9 6 0 11 -3 11 -8z m338 -7 c3 -3 -4 -4 -16 -2 -12 2 -24
6 -28 10 -4 3 4 4 16 2 12 -2 25 -7 28 -10z m85 3 c-10 -17 -11 -30 -2 -48 5
-11 2 -16 -11 -16 -10 0 -16 5 -12 11 4 5 7 17 7 25 0 16 13 40 21 40 3 0 2
-6 -3 -12z m121 4 c3 -5 -1 -9 -9 -9 -8 0 -12 4 -9 9 3 4 7 8 9 8 2 0 6 -4 9
-8z m92 -4 c3 -4 -1 -5 -10 -4 -8 1 -18 5 -22 8 -3 4 1 5 10 4 8 -1 18 -5 22
-8z m-55 -15 c13 -16 12 -17 -3 -4 -17 13 -22 21 -14 21 2 0 10 -8 17 -17z
m-1386 -33 c-2 -8 0 -21 4 -29 8 -12 12 -12 25 -2 16 13 21 6 18 -21 -2 -14
25 -15 43 -2 10 8 13 14 7 14 -9 0 -9 4 -1 18 12 19 44 23 67 8 10 -6 10 -11
1 -22 -6 -8 -8 -14 -5 -14 4 0 1 -10 -6 -22 -7 -13 -11 -29 -10 -35 3 -15 -14
-17 -23 -3 -3 5 -12 7 -21 3 -12 -5 -12 -7 2 -18 17 -12 23 -27 27 -70 2 -11
6 -25 10 -31 4 -7 0 -11 -11 -11 -40 0 -45 -3 -33 -16 6 -8 9 -23 6 -35 -2
-12 1 -24 6 -28 6 -4 6 -11 -1 -19 -7 -8 -8 -20 -4 -27 4 -7 -2 -4 -14 6 -12
11 -22 16 -22 11 0 -4 -6 -2 -14 4 -17 14 -31 -2 -20 -21 5 -9 2 -9 -9 1 -9 7
-17 10 -17 6 0 -4 -6 -3 -12 2 -7 6 -27 9 -44 8 -23 -1 -31 3 -30 14 1 9 -6
15 -15 13 -17 -2 -44 43 -40 67 1 7 -2 10 -8 7 -23 -14 -21 17 2 38 25 23 43
24 30 2 -14 -22 -10 -44 6 -38 12 4 11 0 -4 -18 -11 -13 -14 -20 -8 -16 9 5
11 2 7 -8 -7 -19 7 -21 25 -3 10 10 12 8 9 -8 -1 -11 3 -20 10 -21 6 -1 14 -2
17 -3 10 -2 20 4 18 12 -2 4 2 7 8 7 6 0 8 -7 5 -16 -4 -10 -2 -13 6 -8 7 5 8
3 3 -6 -6 -9 -4 -11 5 -5 9 6 11 4 5 -6 -6 -11 -5 -12 5 -2 16 15 21 55 7 46
-6 -4 -7 -1 -2 7 6 9 4 11 -5 5 -8 -5 -11 -4 -6 3 3 6 18 9 31 6 28 -5 30 -2
14 29 -12 21 -11 21 12 5 24 -15 25 -15 27 5 0 13 -2 17 -6 10 -5 -8 -13 -9
-22 -3 -13 9 -13 10 0 11 8 0 23 2 33 4 10 2 14 -1 11 -7 -4 -7 -2 -8 5 -4 6
4 8 12 5 18 -4 6 -3 8 3 5 5 -3 10 0 10 8 0 11 -4 12 -14 4 -9 -8 -13 -8 -13
-1 0 6 5 14 10 17 6 4 8 11 4 16 -3 5 -10 7 -15 4 -5 -4 -9 -2 -9 4 0 5 3 11
8 14 4 2 2 3 -3 1 -6 -1 -11 8 -11 20 0 18 5 22 23 20 14 -1 21 2 17 8 -5 7
-2 8 7 3 11 -6 11 -5 2 5 -6 7 -9 19 -6 28 4 10 2 13 -6 8 -6 -4 -10 -15 -9
-23 2 -9 -3 -18 -10 -20 -8 -3 -10 1 -6 14 6 16 5 16 -9 -2 -9 -11 -17 -15
-17 -7 0 6 -5 12 -11 12 -8 0 -8 -5 1 -15 9 -10 9 -15 1 -15 -10 0 -13 7 -10
26 1 8 -22 24 -33 24 -5 0 -8 -7 -8 -15 0 -8 -5 -15 -11 -15 -5 0 -8 4 -4 10
3 5 -7 16 -22 24 -15 8 -25 16 -20 17 24 5 33 3 45 -11 11 -13 11 -12 2 7 -15
31 -31 39 -42 19 -5 -9 -14 -13 -21 -9 -9 5 -8 2 0 -9 7 -8 10 -18 6 -21 -3
-4 -1 -7 6 -7 7 0 9 -5 6 -10 -4 -6 -10 -8 -15 -5 -5 3 -14 -3 -20 -12 -10
-16 -10 -16 -6 2 3 11 1 27 -4 35 -5 8 -10 11 -10 7 0 -4 -10 -2 -22 4 -21 11
-21 12 -3 25 13 10 22 11 31 3 17 -14 50 4 59 31 5 16 9 18 26 7 10 -6 17 -19
14 -27z m658 23 c-6 -16 -5 -17 13 -3 18 14 18 14 5 -2 -7 -10 -17 -15 -22
-12 -5 3 -9 1 -9 -5 0 -22 19 -19 45 9 34 36 41 37 57 8 15 -26 53 -35 44 -11
-3 8 -1 11 4 8 6 -3 10 -1 10 6 0 7 3 10 6 6 4 -3 -3 -21 -15 -40 -25 -40 -27
-54 -6 -37 10 9 15 9 15 1 0 -10 -13 -15 -32 -12 -14 2 -8 -17 7 -23 8 -3 15
-11 15 -18 0 -9 -3 -8 -10 2 -5 8 -10 11 -10 5 0 -5 -5 -2 -11 7 -7 13 -5 26
7 49 14 29 14 31 0 26 -9 -4 -20 1 -25 11 -6 9 -11 13 -11 8 0 -5 -6 -3 -14 3
-11 9 -17 8 -28 -6 -39 -53 -82 -64 -85 -23 -1 16 1 17 12 7 7 -6 11 -15 8
-19 -2 -5 0 -8 6 -8 17 0 23 20 7 26 -14 5 -14 8 1 30 18 28 25 31 16 7z m274
10 c-9 -2 -14 -9 -11 -15 4 -7 2 -8 -5 -4 -15 10 -4 26 17 25 15 -1 15 -2 -1
-6z m90 1 c-3 -3 -12 -4 -19 -1 -8 3 -5 6 6 6 11 1 17 -2 13 -5z m163 -8 c-7
-7 -13 -7 -20 0 -6 6 -3 10 10 10 13 0 16 -4 10 -10z m-1414 -4 c6 -4 10 -17
9 -30 -1 -13 2 -25 7 -28 15 -9 8 -20 -12 -20 -19 0 -24 24 -8 36 3 3 0 14 -8
24 -8 11 -14 14 -14 8 0 -7 -5 -12 -11 -12 -8 0 -8 5 1 15 14 17 20 18 36 7z
m1600 -14 c12 -14 13 -18 3 -10 -9 6 -18 10 -21 7 -2 -3 -5 2 -5 10 0 19 0 19
23 -7z m-1706 -10 c0 -6 -3 -9 -6 -5 -4 3 -15 -4 -25 -16 -22 -27 -25 -10 -3
21 15 22 34 22 34 0z m1300 12 c0 -5 -2 -10 -4 -10 -3 0 -8 5 -11 10 -3 6 -1
10 4 10 6 0 11 -4 11 -10z m157 -4 c0 -8 -8 -11 -21 -8 -19 5 -19 6 0 13 10 4
19 8 20 8 0 1 1 -5 1 -13z m53 -1 c0 -2 -6 -5 -13 -8 -8 -3 -14 1 -14 8 0 7 6
11 14 8 7 -3 13 -6 13 -8z m85 5 c-3 -5 0 -10 7 -11 10 0 10 -2 0 -6 -6 -2 -9
-10 -6 -15 4 -6 2 -8 -4 -5 -5 4 -9 15 -7 25 5 23 4 22 11 22 3 0 2 -4 -1 -10z
m-1523 -13 c17 -1 22 -37 5 -37 -5 0 -4 -7 3 -15 10 -12 10 -19 2 -27 -9 -9
-16 -8 -30 6 -16 17 -16 18 8 11 14 -4 22 -4 18 0 -11 11 -77 15 -83 4 -4 -5
2 -6 12 -2 16 6 16 5 4 -10 -7 -9 -18 -14 -25 -11 -6 3 -2 -3 10 -13 11 -10
19 -28 18 -40 0 -12 2 -20 7 -17 4 2 5 12 2 22 -6 15 -5 15 10 3 9 -7 17 -18
17 -24 0 -6 -3 -7 -7 -4 -3 4 -12 2 -19 -4 -19 -15 -32 -4 -29 25 2 17 -1 23
-10 20 -11 -5 -13 11 -6 48 0 4 16 21 34 39 17 17 27 28 20 25 -6 -3 -15 -1
-19 5 -5 9 0 10 17 5 13 -5 32 -8 41 -9z m1161 -2 c-3 -9 -8 -14 -10 -11 -3 3
-2 9 2 15 9 16 15 13 8 -4z m-147 -32 c-6 -6 -46 20 -46 30 0 4 11 0 25 -9 14
-9 24 -19 21 -21z m194 24 c0 -5 -7 -6 -16 -3 -12 5 -14 1 -9 -17 5 -19 4 -20
-5 -4 -6 9 -9 21 -6 25 7 12 36 11 36 -1z m110 -12 c5 3 12 0 16 -6 4 -8 3 -9
-4 -5 -7 4 -12 1 -12 -6 0 -9 -3 -9 -10 2 -5 8 -9 20 -9 25 0 6 3 4 6 -3 2 -6
9 -10 13 -7z m128 -10 c-3 -3 -9 2 -12 12 -6 14 -5 15 5 6 7 -7 10 -15 7 -18z
m-358 0 c0 -8 -2 -15 -4 -15 -2 0 -6 7 -10 15 -3 8 -1 15 4 15 6 0 10 -7 10
-15z m52 -5 c-2 -8 3 -10 13 -7 8 4 15 2 15 -4 0 -6 -8 -9 -17 -7 -10 2 -17
10 -15 16 1 7 -2 12 -8 12 -5 0 -10 -5 -10 -12 0 -6 -3 -9 -6 -5 -9 9 6 29 19
24 7 -3 11 -10 9 -17z m145 14 c-3 -3 -12 -4 -19 -1 -8 3 -5 6 6 6 11 1 17 -2
13 -5z m116 -8 c4 -11 1 -13 -10 -9 -12 5 -14 3 -8 -7 5 -9 4 -11 -4 -6 -9 6
-9 11 0 22 14 17 16 17 22 0z m202 -25 c0 -16 -3 -27 -7 -25 -6 4 -5 29 1 52
4 11 7 -3 6 -27z m-595 3 c0 -2 -7 -4 -15 -4 -8 0 -15 4 -15 10 0 5 7 7 15 4
8 -4 15 -8 15 -10z m525 6 c3 -6 -1 -7 -9 -4 -18 7 -21 14 -7 14 6 0 13 -4 16
-10z m-1384 -35 c9 6 23 -34 15 -43 -4 -3 -19 -8 -34 -10 -26 -3 -26 -3 -7 12
16 11 17 17 8 27 -10 10 -16 9 -29 -2 -16 -12 -17 -12 -11 3 3 10 1 20 -5 24
-7 4 -8 3 -4 -4 4 -7 3 -12 -3 -12 -13 0 -24 18 -17 29 3 5 22 1 42 -10 21
-10 40 -16 45 -14z m95 17 c-3 -2 -1 -13 4 -23 7 -12 7 -20 0 -24 -9 -6 -14 8
-11 28 2 9 -35 -9 -43 -21 -3 -5 1 -9 9 -9 8 0 12 4 9 9 -3 4 0 8 5 8 13 0 15
-27 2 -34 -4 -3 -16 1 -26 8 -14 10 -16 17 -7 32 6 10 13 18 16 17 16 -7 28
-1 23 11 -4 10 -1 13 9 9 8 -3 13 -8 10 -11z m-196 -7 c0 -8 -4 -15 -10 -15
-5 0 -10 7 -10 15 0 8 5 15 10 15 6 0 10 -7 10 -15z m272 -29 c9 1 15 -5 13
-15 -4 -24 14 -53 28 -44 8 4 7 1 -1 -10 -8 -9 -10 -22 -6 -28 4 -7 3 -9 -4
-5 -14 8 -63 -14 -61 -28 3 -23 -1 -39 -8 -33 -3 4 -12 2 -19 -4 -11 -9 -10
-16 3 -37 l15 -27 -19 24 c-20 23 -50 22 -36 -2 5 -8 2 -8 -9 0 -8 7 -19 9
-24 5 -4 -4 -2 1 5 10 7 10 18 15 25 11 6 -4 5 1 -3 10 -16 20 -2 23 18 5 11
-11 12 -10 6 1 -5 9 -4 12 2 8 6 -4 9 4 7 19 -2 18 2 24 11 20 14 -5 39 17 29
26 -3 3 -1 9 5 13 6 3 11 1 11 -4 0 -6 5 -11 11 -11 5 0 7 5 3 12 -4 6 -3 8 3
5 5 -3 10 0 10 8 0 8 -5 13 -10 12 -5 -1 -12 4 -15 12 -2 8 0 11 5 8 5 -3 10
0 10 8 0 8 -4 12 -8 9 -4 -2 -12 4 -18 13 -6 11 -11 13 -11 5 0 -7 -4 -11 -9
-7 -5 3 -13 0 -17 -6 -4 -7 -3 -9 4 -5 6 3 13 2 17 -4 3 -5 1 -10 -4 -10 -6 0
-11 -5 -11 -11 0 -8 5 -8 15 1 9 8 15 9 15 2 0 -15 -16 -23 -33 -16 -12 4 -17
42 -7 52 1 1 3 5 5 10 1 4 5 15 10 25 7 17 9 16 19 -5 7 -13 19 -22 28 -22z
m827 29 c3 -3 -7 -4 -23 -1 -16 3 -31 8 -35 11 -3 3 7 4 23 1 16 -3 31 -8 35
-11z m37 -10 c-3 -9 -10 -14 -14 -11 -5 3 -14 -6 -20 -19 -8 -17 -17 -23 -32
-20 -14 3 -20 0 -17 -8 3 -7 10 -11 16 -9 6 1 11 -2 11 -8 0 -13 -17 -13 -25
1 -5 6 -12 4 -20 -8 -11 -14 -16 -15 -26 -6 -6 6 -17 10 -23 9 -6 -2 -8 -1 -3
1 4 3 4 9 1 15 -4 5 6 2 22 -8 27 -18 28 -18 21 -1 -4 10 -3 16 2 13 5 -3 11
1 14 9 4 8 15 12 25 10 13 -2 23 5 31 21 6 14 16 22 21 19 6 -3 10 2 10 11 0
10 3 15 6 11 4 -3 4 -13 0 -22z m73 15 c-6 -5 -18 -6 -26 -3 -19 8 -16 11 13
11 17 0 22 -3 13 -8z m18 -15 c-21 -15 -8 -28 20 -19 17 5 17 5 0 -6 -14 -9
-22 -9 -33 1 -13 10 -12 14 3 29 10 10 20 15 23 13 3 -3 -3 -11 -13 -18z m98
15 c3 -6 -1 -7 -9 -4 -18 7 -21 14 -7 14 6 0 13 -4 16 -10z m59 -2 c-3 -5 -9
-6 -14 -3 -5 3 -13 -3 -19 -12 -6 -10 -11 -13 -11 -7 0 5 5 15 10 20 13 13 41
14 34 2z m-1458 -13 c4 -11 18 -13 49 -10 30 2 48 -1 56 -11 14 -17 -2 -19
-21 -1 -12 10 -12 9 -1 -5 15 -21 2 -24 -19 -5 -11 9 -11 8 0 -7 13 -17 13
-19 0 -14 -8 3 -22 2 -31 -3 -19 -10 -75 43 -65 60 10 16 26 14 32 -4z m1120
0 c12 -8 24 -11 28 -8 3 3 6 1 6 -6 0 -7 -6 -11 -12 -8 -7 2 -25 -5 -40 -15
-16 -11 -28 -15 -28 -9 0 6 4 11 8 11 5 0 17 7 28 16 17 14 17 15 1 10 -10 -3
-16 -2 -12 3 3 5 -1 12 -7 14 -7 3 -8 6 -3 6 6 1 20 -6 31 -14z m249 6 c3 -5
0 -13 -6 -17 -8 -5 -9 -3 -4 6 6 9 1 10 -16 5 -19 -5 -21 -4 -9 4 19 13 27 14
35 2z m-109 -13 c4 -6 3 -8 -4 -4 -7 4 -10 -2 -9 -14 1 -12 6 -19 14 -16 7 3
13 1 13 -5 0 -19 -33 -5 -36 15 -4 31 9 46 22 24z m210 -5 c-2 -9 -9 -19 -17
-21 -11 -3 -11 -1 1 7 8 6 11 11 7 11 -5 0 -5 5 -2 10 9 15 14 12 11 -7z m121
11 c-3 -3 -12 -4 -19 -1 -8 3 -5 6 6 6 11 1 17 -2 13 -5z m-181 -41 c-3 -4 -6
-1 -6 6 0 7 -4 10 -9 6 -5 -3 -13 0 -17 6 -4 8 -3 9 4 5 7 -4 12 -1 12 6 0 8
5 6 11 -5 6 -10 8 -21 5 -24z m201 22 c0 -8 -4 -12 -9 -9 -5 3 -6 10 -3 15 9
13 12 11 12 -6z m-1690 -14 c1 -14 -3 -18 -15 -14 -14 4 -15 3 -2 -5 10 -8 19
-7 29 1 11 10 13 9 10 -2 -7 -21 -22 -23 -44 -7 -16 12 -17 16 -6 30 18 21 26
20 28 -3z m233 8 c0 -5 -4 -7 -10 -4 -10 6 -15 -10 -10 -30 1 -5 3 -15 3 -22
0 -7 4 -10 9 -7 5 3 5 10 2 16 -4 7 -2 8 4 4 7 -4 12 -2 12 5 0 7 3 9 7 6 3
-4 12 -2 18 3 14 11 45 3 45 -11 0 -11 -22 -8 -31 4 -3 5 -9 -1 -12 -12 -3
-12 -1 -19 3 -16 5 3 7 -4 5 -15 -2 -11 0 -18 5 -15 5 3 8 -4 7 -15 -2 -24
-10 -25 -26 -6 -9 10 -9 16 -1 21 8 5 8 11 1 19 -6 7 -7 16 -3 21 4 4 -3 2
-15 -6 -12 -7 -19 -18 -15 -24 3 -5 -1 -4 -10 3 -14 11 -19 9 -36 -13 -12 -15
-23 -21 -27 -15 -3 5 -12 10 -18 10 -8 0 -8 -3 2 -9 7 -5 9 -11 4 -14 -6 -4
-15 5 -22 19 -6 15 -16 22 -23 18 -6 -4 -8 -3 -5 4 4 5 27 9 52 8 46 -2 60 9
44 35 -7 12 -10 12 -21 0 -8 -9 -9 -11 -1 -7 6 3 14 2 17 -3 3 -5 -1 -11 -9
-15 -8 -3 -15 -2 -15 3 0 5 -7 8 -16 7 -9 0 -19 6 -22 14 -3 12 -2 12 8 3 8
-7 17 -8 24 -2 62 51 76 58 76 38z m890 3 c0 -4 -9 -8 -20 -9 -11 -1 -20 2
-20 5 0 4 9 8 20 9 11 1 20 -2 20 -5z m180 -2 c0 -5 -5 -10 -11 -10 -5 0 -7 5
-4 10 3 6 8 10 11 10 2 0 4 -4 4 -10z m337 -12 c-3 -8 -6 -5 -6 6 -1 11 2 17
5 13 3 -3 4 -12 1 -19z m26 7 c4 -8 3 -16 -1 -19 -4 -3 -9 4 -9 15 -2 23 3 25
10 4z m-221 -9 c7 4 8 2 4 -5 -9 -13 -26 -5 -25 12 0 9 2 8 6 -1 2 -6 10 -9
15 -6z m163 4 c4 -6 -1 -7 -11 -3 -13 5 -15 3 -9 -7 5 -9 4 -11 -4 -6 -6 4 -9
12 -6 17 8 12 22 12 30 -1z m-529 -15 c4 -8 14 -15 23 -16 12 0 13 -2 2 -6 -8
-3 -20 2 -28 12 -7 10 -16 15 -20 11 -5 -4 2 -16 14 -26 12 -9 19 -20 16 -24
-4 -3 -1 -6 5 -6 7 0 12 6 12 13 0 8 3 9 8 1 4 -6 14 -10 23 -9 26 4 20 -41
-8 -70 -22 -21 -23 -26 -9 -31 9 -3 13 -10 10 -16 -3 -5 -12 -1 -19 9 -12 15
-11 21 7 40 19 20 19 21 1 32 -10 6 -13 11 -7 11 5 0 15 -5 22 -12 13 -13 15
-8 6 15 -3 10 -14 14 -29 11 -16 -3 -27 3 -40 22 -16 24 -18 25 -41 9 -13 -8
-24 -11 -24 -6 0 5 9 13 20 16 11 4 18 10 15 15 -3 5 1 11 7 13 22 9 28 7 34
-8z m186 -8 c-12 -14 -7 -27 10 -27 5 0 6 5 3 10 -9 15 21 23 42 11 15 -9 13
-10 -11 -5 -20 5 -27 3 -22 -4 10 -16 -13 -25 -29 -12 -11 9 -12 16 -2 30 6
11 13 17 16 15 2 -3 -1 -11 -7 -18z m-916 -8 c1 -5 2 -13 3 -17 1 -12 33 -11
48 0 7 6 14 4 19 -3 4 -7 3 -9 -4 -5 -11 6 -27 -10 -27 -29 0 -5 -9 -10 -19
-10 -11 0 -20 -8 -22 -18 -3 -23 -14 -36 -14 -17 0 10 -3 10 -15 0 -8 -7 -12
-17 -8 -23 4 -6 0 -8 -9 -4 -9 3 -20 1 -26 -5 -7 -7 -10 -5 -7 8 1 11 8 18 14
16 6 -1 11 2 11 8 0 20 2 25 12 38 6 7 20 10 32 7 18 -5 18 -4 -3 8 -21 12
-21 15 -6 21 10 3 15 9 12 13 -9 8 -38 -17 -31 -28 6 -10 -9 -12 -19 -3 -8 9
4 35 14 29 4 -3 13 4 19 16 11 19 23 19 26 -2z m771 15 c-3 -3 -12 -4 -19 -1
-8 3 -5 6 6 6 11 1 17 -2 13 -5z m249 -30 c-3 -8 -9 -13 -14 -10 -4 2 -14 -4
-20 -15 -11 -17 -10 -20 5 -17 10 2 23 10 30 18 7 8 13 11 13 6 0 -6 7 -1 16
10 14 18 15 18 4 -4 -6 -12 -15 -20 -19 -17 -5 3 -11 -1 -14 -9 -4 -10 -38
-15 -55 -7 -1 0 5 12 14 26 9 14 20 22 25 19 5 -3 9 5 10 18 0 13 3 17 6 10 3
-7 2 -20 -1 -28z m59 16 c3 -6 -1 -7 -9 -4 -18 7 -21 14 -7 14 6 0 13 -4 16
-10z m93 2 c8 -6 2 -9 -18 -9 -20 0 -26 3 -18 9 7 4 15 8 18 8 3 0 11 -4 18
-8z m52 -4 c0 -4 -4 -8 -9 -8 -6 0 -12 4 -15 8 -3 5 1 9 9 9 8 0 15 -4 15 -9z
m-102 -17 c11 -7 10 -9 -3 -14 -11 -5 -14 -3 -9 5 5 8 2 9 -10 5 -10 -4 -15
-3 -11 3 7 12 16 12 33 1z m116 -3 c-5 -7 -2 -9 8 -6 8 4 15 0 15 -7 0 -10 -5
-11 -19 -4 -16 9 -17 29 -2 29 3 0 2 -5 -2 -12z m-282 -20 c-7 -7 -12 -8 -12
-2 0 14 12 26 19 19 2 -3 -1 -11 -7 -17z m209 5 c13 -16 12 -17 -3 -4 -10 7
-18 15 -18 17 0 8 8 3 21 -13z m-301 -5 c0 -9 3 -9 12 0 7 7 17 12 23 12 5 0
2 -5 -7 -11 -11 -6 -15 -16 -11 -26 5 -12 0 -10 -15 5 -24 24 -27 32 -12 32 6
0 10 -5 10 -12z m235 -19 c-8 -12 -35 -12 -35 1 0 5 7 6 17 3 12 -5 14 -3 8 7
-5 9 -4 11 4 6 6 -4 9 -12 6 -17z m119 12 c4 -5 -3 -7 -14 -4 -23 6 -26 13 -6
13 8 0 17 -4 20 -9z m-378 -16 c4 -8 10 -12 15 -9 5 3 1 -10 -8 -29 -10 -19
-20 -31 -22 -25 -2 5 2 15 8 21 20 20 12 31 -9 12 -11 -10 -18 -21 -15 -24 2
-4 -5 -7 -16 -8 -16 -2 -16 1 6 21 14 13 21 27 17 31 -4 5 -1 5 6 1 6 -4 12
-3 12 3 0 5 -6 12 -12 14 -10 4 -10 6 0 6 7 1 15 -6 18 -14z m98 6 c3 -5 -1
-14 -10 -21 -12 -11 -17 -11 -27 0 -9 10 -9 11 1 6 6 -4 18 -4 24 0 9 6 5 10
-12 15 -23 6 -23 7 -3 8 12 1 24 -3 27 -8z m131 -41 c5 1 11 -4 13 -12 3 -11
2 -11 -6 0 -5 8 -13 12 -18 10 -5 -1 -10 8 -11 22 -2 24 -2 24 5 2 4 -13 11
-23 17 -22z m58 27 c3 -8 -1 -14 -9 -14 -15 0 -18 9 -7 20 9 9 10 9 16 -6z
m-167 -6 c-4 -5 -1 -11 6 -13 15 -5 21 -45 8 -53 -7 -4 -9 3 -6 19 4 20 1 24
-15 23 -10 -1 -22 -9 -25 -19 -3 -10 -10 -18 -15 -18 -6 0 -7 -6 -3 -12 5 -9
2 -9 -9 1 -9 7 -17 19 -17 25 0 6 4 5 9 -3 6 -9 11 -10 15 -2 4 6 0 14 -8 17
-9 3 -16 11 -16 17 0 6 7 4 17 -5 15 -16 17 -15 35 8 19 23 35 34 24 15z m51
-7 c-3 -3 -12 -4 -19 -1 -8 3 -5 6 6 6 11 1 17 -2 13 -5z m175 -1 c-6 -2 -9
-10 -6 -15 4 -7 2 -8 -5 -4 -13 9 -5 26 12 25 9 0 8 -2 -1 -6z m-151 -36 c-5
-5 -17 -4 -28 2 -16 11 -16 11 4 6 19 -5 22 -3 17 12 -5 15 -4 15 5 3 6 -8 6
-19 2 -23z m129 -2 c0 -5 -5 -3 -10 5 -5 8 -10 20 -10 25 0 6 5 3 10 -5 5 -8
10 -19 10 -25z m-299 -3 c-18 -34 -34 -42 -55 -26 -11 8 -15 14 -10 14 6 0 15
-5 22 -12 8 -8 14 -5 23 15 7 15 16 27 21 27 5 0 4 -8 -1 -18z m269 14 c0 -3
-4 -8 -10 -11 -5 -3 -10 -1 -10 4 0 6 5 11 10 11 6 0 10 -2 10 -4z m-75 -17
c-9 -13 27 -8 38 6 5 6 7 4 5 -4 -4 -15 -35 -24 -50 -15 -8 5 -2 24 8 24 3 0
2 -5 -1 -11z m-61 -24 c-4 -15 -2 -25 5 -25 6 0 10 5 9 12 -2 6 5 13 15 14 12
1 13 0 2 -3 -8 -2 -13 -8 -10 -13 8 -13 -15 -24 -27 -12 -5 5 -7 19 -3 31 9
30 17 26 9 -4z m-114 -3 c0 -4 -9 -13 -20 -20 -23 -14 -26 -8 -7 13 13 16 27
19 27 7z m60 -3 c0 -5 5 -7 10 -4 6 3 10 1 10 -4 0 -13 -3 -13 -24 -5 -18 7
-22 24 -6 24 6 0 10 -5 10 -11z m-100 -42 c23 -21 39 -41 36 -44 -2 -3 -22 13
-44 36 -21 22 -42 38 -45 34 -4 -3 -7 -1 -7 6 0 18 12 12 60 -32z m50 12 c-13
-8 -13 -10 0 -18 8 -6 12 -12 10 -15 -3 -2 -14 2 -24 10 -20 14 -20 14 0 28
10 8 21 12 24 10 2 -3 -2 -9 -10 -15z m165 12 c3 -5 0 -13 -6 -17 -7 -4 -9 -3
-5 4 3 5 0 13 -6 15 -9 4 -10 6 -1 6 6 1 14 -3 18 -8z m-138 -33 c-3 -7 -5 -2
-5 12 0 14 2 19 5 13 2 -7 2 -19 0 -25z m-80 -28 c12 -14 23 -29 23 -35 0 -5
-16 8 -35 30 -29 33 -37 37 -45 25 -11 -17 -13 -10 -4 14 7 19 20 11 61 -34z
m143 46 c0 -2 -7 -7 -16 -10 -8 -3 -12 -2 -9 4 6 10 25 14 25 6z m-38 -33 c-6
-2 -10 -9 -6 -14 3 -5 0 -9 -5 -9 -12 0 -14 13 -4 23 3 4 11 7 17 6 6 0 5 -3
-2 -6z m-42 -34 c-7 -11 -14 -18 -17 -15 -3 3 0 12 7 21 18 21 23 19 10 -6z
m-73 -31 c-3 -7 -5 -2 -5 12 0 14 2 19 5 13 2 -7 2 -19 0 -25z m-27 -3 c-7 -9
-15 -13 -19 -10 -3 3 1 10 9 15 21 14 24 12 10 -5z"/>
<path d="M222 1908 c-7 -7 -18 -13 -25 -13 -7 0 -11 -10 -11 -23 1 -12 -2 -22
-6 -22 -4 0 -11 -7 -14 -16 -5 -14 -4 -15 7 -5 18 14 37 -4 37 -35 0 -4 7 -1
15 6 8 7 15 9 15 5 0 -4 6 -2 14 4 12 10 17 8 26 -8 6 -12 8 -21 4 -21 -3 0
-2 -6 3 -12 5 -7 8 -23 7 -35 -1 -20 0 -21 21 -7 12 8 25 11 30 7 4 -5 5 -2 1
5 -9 16 16 16 32 0 7 -7 12 -8 12 -4 0 5 7 3 15 -4 8 -7 12 -17 8 -24 -3 -6 3
-2 14 9 16 16 18 22 7 28 -8 4 -20 5 -27 2 -6 -4 -5 -1 4 7 14 12 13 15 -7 37
-13 14 -27 22 -30 18 -4 -4 1 -14 12 -22 19 -15 19 -15 -1 -9 -15 4 -16 3 -6
-4 8 -6 9 -12 3 -16 -6 -3 -12 0 -15 6 -3 9 -11 7 -28 -7 -14 -12 -20 -14 -14
-5 6 9 2 7 -7 -3 -10 -11 -18 -15 -18 -10 0 5 3 13 7 17 10 10 13 36 3 33 -7
-2 -10 3 -10 19 0 4 7 1 15 -6 10 -9 15 -9 15 -1 0 6 -4 11 -10 11 -6 0 -9 3
-9 8 1 4 0 12 -1 17 -1 6 -3 15 -5 20 -1 6 -3 19 -3 29 -2 18 -3 18 -20 3 -10
-10 -22 -14 -25 -10 -4 3 -7 1 -7 -7 0 -10 -3 -10 -15 0 -19 16 -40 3 -25 -15
8 -10 8 -15 -1 -21 -8 -5 -9 -3 -4 6 5 8 4 11 -1 7 -6 -3 -10 5 -10 18 0 13 3
22 7 19 4 -2 18 5 30 16 13 11 19 19 14 20 -6 0 -17 -6 -23 -12z m28 -52 c0 5
7 0 16 -11 8 -11 17 -19 19 -17 3 1 11 2 18 2 8 0 7 -3 -3 -10 -9 -5 -19 -5
-25 0 -7 6 -16 5 -23 -2 -7 -7 -12 -8 -12 -4 0 5 -6 3 -14 -3 -11 -10 -14 -9
-12 1 1 7 5 19 9 26 5 6 5 18 1 25 -5 8 -2 8 9 -2 9 -7 17 -10 17 -5z m40 4
c0 -5 -2 -10 -4 -10 -3 0 -8 5 -11 10 -3 6 -1 10 4 10 6 0 11 -4 11 -10z m120
-94 c0 -2 -8 -10 -17 -17 -16 -13 -17 -12 -4 4 13 16 21 21 21 13z"/>
<path d="M250 1839 c0 -5 -4 -8 -9 -4 -5 3 -12 1 -15 -4 -4 -5 2 -8 11 -7 15
3 33 26 19 26 -3 0 -6 -5 -6 -11z"/>
<path d="M341 1836 c-7 -8 -10 -20 -6 -26 4 -6 2 -17 -5 -25 -9 -11 -7 -13 7
-10 10 2 21 4 24 4 7 1 4 59 -3 66 -3 3 -11 -1 -17 -9z"/>
<path d="M621 1441 c-11 -7 -11 -10 0 -17 8 -5 20 -9 27 -10 8 -2 20 -11 28
-21 11 -15 13 -15 14 -2 0 8 -6 21 -12 28 -9 10 -9 12 -1 7 6 -3 15 -1 19 5 5
9 0 10 -16 6 -13 -3 -29 -2 -35 3 -6 5 -17 5 -24 1z"/>
<path d="M717 1443 c-10 -9 -9 -25 1 -19 4 2 14 1 21 -3 10 -6 9 -12 -4 -25
-9 -9 -13 -16 -9 -16 4 0 -1 -9 -11 -20 -10 -11 -13 -20 -8 -20 6 0 16 7 23
15 7 8 15 13 19 11 3 -2 7 9 8 24 2 28 -27 66 -40 53z"/>
<path d="M755 720 c-3 -5 -1 -10 4 -10 6 0 11 5 11 10 0 6 -2 10 -4 10 -3 0
-8 -4 -11 -10z"/>
<path d="M876 673 c-6 -14 -5 -15 5 -6 7 7 10 15 7 18 -3 3 -9 -2 -12 -12z"/>
<path d="M899 508 c-7 -16 -3 -101 5 -105 6 -4 8 -2 3 2 -10 12 23 46 37 38 6
-3 -1 7 -17 24 -15 16 -24 32 -20 36 3 4 3 7 0 7 -4 0 -8 -1 -8 -2z m20 -42
c8 -10 8 -16 -2 -24 -10 -9 -13 -6 -13 13 0 29 0 29 15 11z"/>
<path d="M976 452 c-3 -5 1 -9 9 -9 8 0 12 4 9 9 -3 4 -7 8 -9 8 -2 0 -6 -4
-9 -8z"/>
<path d="M895 340 c-4 -6 -10 -8 -14 -6 -4 3 -8 -1 -8 -9 0 -13 3 -13 17 0 9
8 20 12 25 8 4 -5 5 -2 1 5 -9 15 -13 15 -21 2z"/>
<path d="M821 235 c9 -11 14 -27 12 -35 -4 -12 -3 -12 5 -2 7 11 11 10 16 -4
3 -9 9 -14 13 -11 3 4 13 1 22 -5 9 -7 13 -9 9 -4 -4 5 -3 17 2 26 7 13 5 22
-6 31 -20 17 -42 20 -50 8 -3 -6 -12 -5 -22 3 -16 12 -16 11 -1 -7z m66 -8 c7
-4 9 -15 6 -23 -5 -13 -7 -13 -14 -2 -7 10 -9 10 -9 -1 0 -11 -4 -9 -14 4 -22
30 -3 43 31 22z"/>
<path d="M854 222 c4 -3 14 -7 22 -8 9 -1 13 0 10 4 -4 3 -14 7 -22 8 -9 1
-13 0 -10 -4z"/>
<path d="M710 646 c0 -2 7 -7 16 -10 8 -3 12 -2 9 4 -6 10 -25 14 -25 6z"/>
<path d="M633 605 c0 -8 4 -12 8 -9 4 2 12 -4 18 -13 6 -10 11 -13 11 -7 0 6
-8 18 -18 27 -15 14 -19 15 -19 2z"/>
<path d="M883 612 c-11 -8 -11 -48 0 -57 4 -3 5 -2 2 2 -3 3 2 17 10 29 15 23
8 38 -12 26z"/>
<path d="M590 402 c0 -5 7 -9 15 -9 8 0 15 4 15 9 0 4 -7 8 -15 8 -8 0 -15 -4
-15 -8z"/>
<path d="M805 358 c2 -16 -3 -29 -11 -32 -8 -3 -12 -2 -9 3 3 5 2 12 -3 15 -5
3 -9 -3 -9 -12 0 -22 26 -41 51 -36 22 4 35 14 18 14 -8 0 -11 12 -8 33 3 17
3 26 -1 19 -4 -10 -8 -9 -18 4 -11 16 -12 15 -10 -8z m20 -37 c1 -19 -18 -22
-32 -6 -4 4 -2 5 5 1 11 -7 17 6 12 29 -1 6 2 7 6 2 4 -4 8 -16 9 -26z"/>
<path d="M1465 650 c3 -5 8 -10 11 -10 2 0 4 5 4 10 0 6 -5 10 -11 10 -5 0 -7
-4 -4 -10z"/>
<path d="M441 601 c-9 -6 -6 -8 13 -8 14 0 23 3 20 8 -7 11 -15 11 -33 0z"/>
<path d="M745 380 c-3 -6 1 -7 9 -4 18 7 21 14 7 14 -6 0 -13 -4 -16 -10z"/>
<path d="M450 522 c0 -12 29 -24 41 -16 5 3 9 11 9 17 0 8 -4 7 -9 -2 -8 -12
-12 -12 -25 -2 -9 8 -16 9 -16 3z"/>
<path d="M711 446 c2 -2 14 -9 26 -15 18 -9 22 -9 18 2 -3 7 -15 13 -26 14
-12 1 -20 1 -18 -1z"/>
<path d="M689 418 c-8 -27 -6 -38 5 -29 7 6 17 7 22 3 4 -4 2 1 -5 11 -12 16
-20 21 -22 15z"/>
<path d="M102 1775 c4 -4 3 -16 -3 -26 -5 -11 -7 -19 -5 -19 3 0 10 9 16 19 7
15 7 22 -2 27 -7 4 -10 4 -6 -1z"/>
<path d="M155 1750 c-3 -5 -1 -10 4 -10 6 0 11 5 11 10 0 6 -2 10 -4 10 -3 0
-8 -4 -11 -10z"/>
<path d="M482 1695 c18 -19 68 -29 68 -14 0 5 -10 7 -22 5 -13 -2 -32 4 -43
12 -19 16 -19 16 -3 -3z"/>
<path d="M186 1685 c-9 -26 -7 -32 5 -12 6 10 9 21 6 23 -2 3 -7 -2 -11 -11z"/>
<path d="M250 1680 c0 -5 5 -10 10 -10 6 0 10 5 10 10 0 6 -4 10 -10 10 -5 0
-10 -4 -10 -10z"/>
<path d="M153 1654 c16 -20 52 -30 41 -12 -4 5 -9 7 -12 4 -3 -3 -15 2 -26 11
-21 18 -21 18 -3 -3z"/>
<path d="M310 1661 c0 -6 4 -13 10 -16 6 -3 7 1 4 9 -7 18 -14 21 -14 7z"/>
<path d="M271 1644 c0 -11 3 -14 6 -6 3 7 2 16 -1 19 -3 4 -6 -2 -5 -13z"/>
<path d="M357 1646 c-4 -10 -3 -15 3 -11 6 3 10 1 10 -6 0 -7 3 -10 6 -6 3 3
2 13 -4 22 -8 16 -9 16 -15 1z"/>
<path d="M331 1623 c3 -19 -2 -23 -19 -14 -14 7 -19 6 -19 -3 0 -15 33 -14 48
1 8 8 8 13 0 18 -6 3 -11 3 -10 -2z"/>
<path d="M370 1600 c0 -5 5 -10 11 -10 5 0 7 5 4 10 -3 6 -8 10 -11 10 -2 0
-4 -4 -4 -10z"/>
<path d="M405 1600 c-3 -6 1 -7 9 -4 18 7 21 14 7 14 -6 0 -13 -4 -16 -10z"/>
<path d="M470 1522 c0 -5 7 -9 15 -9 8 0 12 4 9 9 -3 4 -9 8 -15 8 -5 0 -9 -4
-9 -8z"/>
<path d="M469 1483 c-13 -16 -12 -17 4 -4 9 7 17 15 17 17 0 8 -8 3 -21 -13z"/>
<path d="M226 1482 c-3 -5 1 -9 9 -9 8 0 12 4 9 9 -3 4 -7 8 -9 8 -2 0 -6 -4
-9 -8z"/>
<path d="M395 1480 c-3 -5 -1 -10 4 -10 6 0 11 5 11 10 0 6 -2 10 -4 10 -3 0
-8 -4 -11 -10z"/>
<path d="M110 1466 c0 -2 7 -7 16 -10 8 -3 12 -2 9 4 -6 10 -25 14 -25 6z"/>
<path d="M300 1446 c0 -2 8 -10 18 -17 15 -13 16 -12 3 4 -13 16 -21 21 -21
13z"/>
<path d="M386 1442 c-2 -4 4 -8 14 -8 10 0 16 4 14 8 -3 4 -9 8 -14 8 -5 0
-11 -4 -14 -8z"/>
<path d="M253 1405 c0 -8 4 -12 9 -9 5 3 6 10 3 15 -9 13 -12 11 -12 -6z"/>
<path d="M136 1398 c3 -5 10 -6 15 -3 13 9 11 12 -6 12 -8 0 -12 -4 -9 -9z"/>
<path d="M194 1396 c1 -8 5 -18 8 -22 4 -3 5 1 4 10 -1 8 -5 18 -8 22 -4 3 -5
-1 -4 -10z"/>
<path d="M294 1402 c4 -3 14 -7 22 -8 9 -1 13 0 10 4 -4 3 -14 7 -22 8 -9 1
-13 0 -10 -4z"/>
<path d="M439 1398 c-5 -13 -5 -60 0 -63 4 -2 7 12 7 31 0 29 -3 42 -7 32z"/>
<path d="M14 1369 c-3 -6 -2 -15 3 -20 5 -5 9 -1 9 11 0 23 -2 24 -12 9z"/>
<path d="M144 1362 c23 -26 23 -26 23 -7 0 8 -3 13 -5 10 -3 -3 -12 1 -21 7
-10 8 -9 4 3 -10z"/>
<path d="M249 1363 c-13 -16 -12 -17 4 -4 9 7 17 15 17 17 0 8 -8 3 -21 -13z"/>
<path d="M294 1360 c0 -13 4 -16 10 -10 7 7 7 13 0 20 -6 6 -10 3 -10 -10z"/>
<path d="M399 1368 c-7 -23 -4 -35 7 -35 9 0 11 4 4 12 -5 7 -7 15 -3 18 3 4
3 7 0 7 -4 0 -7 -1 -8 -2z"/>
<path d="M189 1343 c-13 -16 -12 -17 4 -4 9 7 17 15 17 17 0 8 -8 3 -21 -13z"/>
<path d="M75 1320 c3 -5 8 -10 11 -10 2 0 4 5 4 10 0 6 -5 10 -11 10 -5 0 -7
-4 -4 -10z"/>
<path d="M125 1319 c-3 -4 2 -6 10 -5 21 3 28 13 10 13 -9 0 -18 -4 -20 -8z"/>
<path d="M32 1291 c7 -9 13 -18 15 -20 1 -2 1 5 0 16 0 11 -7 20 -14 20 -10 0
-10 -4 -1 -16z"/>
<path d="M195 1302 c3 -3 -1 -12 -7 -21 -8 -10 -4 -9 10 3 26 23 26 23 7 23
-8 0 -13 -3 -10 -5z"/>
<path d="M277 1288 c19 -21 31 -25 14 -5 -6 8 -9 16 -6 19 3 2 -2 5 -10 5 -13
0 -13 -3 2 -19z"/>
<path d="M353 1287 c-1 -11 -1 -18 0 -16 2 2 8 11 15 20 9 12 9 16 -1 16 -7 0
-14 -9 -14 -20z"/>
<path d="M395 1302 c3 -3 -3 -15 -12 -26 -14 -15 -14 -18 -2 -8 9 6 18 11 20
9 2 -1 3 0 2 2 -2 2 2 9 7 16 7 8 5 12 -5 12 -8 0 -13 -3 -10 -5z"/>
<path d="M433 1303 c4 -3 1 -13 -6 -22 -11 -14 -10 -14 5 -2 16 12 16 31 1 31
-4 0 -3 -3 0 -7z"/>
<path d="M467 1299 c7 -7 15 -10 18 -7 3 3 -2 9 -12 12 -14 6 -15 5 -6 -5z"/>
<path d="M0 1286 c0 -2 8 -10 18 -17 15 -13 16 -12 3 4 -13 16 -21 21 -21 13z"/>
<path d="M485 1280 c-16 -7 -17 -9 -3 -9 9 -1 20 4 23 9 7 11 7 11 -20 0z"/>
<path d="M310 1276 c0 -2 8 -10 18 -17 15 -13 16 -12 3 4 -13 16 -21 21 -21
13z"/>
<path d="M65 1259 c-3 -4 2 -6 10 -5 21 3 28 13 10 13 -9 0 -18 -4 -20 -8z"/>
<path d="M169 1243 c-13 -16 -12 -17 4 -4 16 13 21 21 13 21 -2 0 -10 -8 -17
-17z"/>
<path d="M214 1246 c1 -8 5 -18 8 -22 4 -3 5 1 4 10 -1 8 -5 18 -8 22 -4 3 -5
-1 -4 -10z"/>
<path d="M257 1241 c-4 -17 -3 -21 5 -13 5 5 8 16 6 23 -3 8 -7 3 -11 -10z"/>
<path d="M302 1244 c10 -10 20 -16 22 -13 3 3 -5 11 -17 18 -21 13 -21 12 -5
-5z"/>
<path d="M458 1247 c8 -9 11 -20 9 -24 -3 -5 4 -9 16 -10 12 0 16 1 9 4 -6 3
-10 8 -8 12 3 4 -5 13 -17 21 -20 12 -21 12 -9 -3z"/>
<path d="M353 1226 c-18 -21 -18 -21 3 -3 16 13 23 15 26 6 3 -9 6 -9 10 2 9
23 -19 19 -39 -5z"/>
<path d="M29 1223 c-13 -16 -12 -17 4 -4 9 7 17 15 17 17 0 8 -8 3 -21 -13z"/>
<path d="M186 1223 c-6 -14 -5 -15 5 -6 7 7 10 15 7 18 -3 3 -9 -2 -12 -12z"/>
<path d="M427 1219 c7 -7 15 -10 18 -7 3 3 -2 9 -12 12 -14 6 -15 5 -6 -5z"/>
<path d="M49 1203 c-8 -9 -9 -14 -2 -10 6 4 13 1 16 -5 3 -7 4 -3 4 10 -1 26
-1 26 -18 5z"/>
<path d="M275 1211 c-3 -5 0 -13 6 -17 7 -4 9 -3 5 4 -3 5 0 13 6 15 9 4 10 6
1 6 -6 1 -14 -3 -18 -8z"/>
<path d="M195 1199 c-3 -4 2 -6 10 -5 21 3 28 13 10 13 -9 0 -18 -4 -20 -8z"/>
<path d="M399 1203 c0 -5 -3 -19 -5 -32 -2 -14 -2 -22 1 -19 8 8 17 58 10 58
-3 0 -5 -3 -6 -7z"/>
<path d="M125 1179 c-4 -6 -13 -8 -21 -5 -8 3 -11 0 -7 -10 5 -13 8 -13 24 2
19 17 23 24 15 24 -3 0 -8 -5 -11 -11z"/>
<path d="M320 1180 c-9 -6 -10 -10 -3 -10 6 0 15 5 18 10 8 12 4 12 -15 0z"/>
<path d="M438 1183 c7 -3 16 -2 19 1 4 3 -2 6 -13 5 -11 0 -14 -3 -6 -6z"/>
<path d="M33 1165 c0 -8 4 -12 9 -9 5 3 6 10 3 15 -9 13 -12 11 -12 -6z"/>
<path d="M57 1156 c-4 -11 -1 -13 10 -9 10 4 14 2 10 -4 -3 -5 0 -10 8 -10 13
0 12 4 -2 19 -19 22 -19 22 -26 4z"/>
<path d="M147 1159 c7 -9 10 -19 6 -22 -3 -4 -1 -7 5 -7 17 0 15 16 -5 31 -16
12 -17 12 -6 -2z"/>
<path d="M230 1162 c0 -5 7 -9 15 -9 8 0 12 4 9 9 -3 4 -9 8 -15 8 -5 0 -9 -4
-9 -8z"/>
<path d="M291 1154 c0 -11 3 -14 6 -6 3 7 2 16 -1 19 -3 4 -6 -2 -5 -13z"/>
<path d="M341 1154 c0 -11 3 -14 6 -6 3 7 2 16 -1 19 -3 4 -6 -2 -5 -13z"/>
<path d="M465 1159 c-4 -6 -4 -13 -1 -16 3 -4 6 -1 6 6 0 7 5 9 12 5 7 -4 8
-3 4 4 -9 15 -13 15 -21 1z"/>
<path d="M228 1133 c7 -3 16 -2 19 1 4 3 -2 6 -13 5 -11 0 -14 -3 -6 -6z"/>
<path d="M497 1129 c7 -7 15 -10 18 -7 3 3 -2 9 -12 12 -14 6 -15 5 -6 -5z"/>
<path d="M100 1120 c-12 -7 -10 -9 7 -7 12 0 19 5 17 9 -6 10 -6 10 -24 -2z"/>
<path d="M267 1111 c-3 -13 -1 -18 9 -14 7 2 10 11 7 19 -7 19 -10 18 -16 -5z"/>
<path d="M346 1115 c4 -8 11 -15 16 -15 6 0 5 6 -2 15 -7 8 -14 15 -16 15 -2
0 -1 -7 2 -15z"/>
<path d="M410 1120 c0 -5 5 -10 10 -10 6 0 10 5 10 10 0 6 -4 10 -10 10 -5 0
-10 -4 -10 -10z"/>
<path d="M471 1113 c7 -12 15 -20 18 -17 3 2 -3 12 -13 22 -17 16 -18 16 -5
-5z"/>
<path d="M454 1103 c4 -7 2 -13 -3 -13 -6 0 -11 -5 -11 -11 0 -5 5 -7 12 -3 8
5 9 2 5 -10 -4 -10 -3 -15 3 -11 11 7 8 41 -5 52 -4 5 -5 2 -1 -4z"/>
<path d="M143 1090 c2 -8 10 -15 17 -15 7 0 15 7 17 15 4 13 3 13 -6 0 -10
-13 -12 -13 -22 0 -9 13 -10 13 -6 0z"/>
<path d="M520 1091 c0 -7 -4 -9 -10 -6 -5 3 -10 1 -10 -4 0 -6 4 -11 9 -11 13
0 25 20 17 27 -3 4 -6 1 -6 -6z"/>
<path d="M46 1082 c-3 -5 1 -9 9 -9 8 0 15 4 15 9 0 4 -4 8 -9 8 -6 0 -12 -4
-15 -8z"/>
<path d="M235 1080 c-3 -5 -1 -10 4 -10 6 0 11 5 11 10 0 6 -2 10 -4 10 -3 0
-8 -4 -11 -10z"/>
<path d="M290 1078 c0 -11 12 -10 30 2 12 7 10 9 -8 7 -12 0 -22 -5 -22 -9z"/>
<path d="M340 1086 c0 -2 8 -10 18 -17 15 -13 16 -12 3 4 -13 16 -21 21 -21
13z"/>
<path d="M394 1083 c4 -6 1 -13 -6 -15 -7 -3 -2 -7 10 -10 12 -4 25 -1 29 5 3
7 3 9 -2 5 -4 -4 -14 0 -22 10 -8 9 -12 12 -9 5z"/>
<path d="M315 1060 c-3 -5 -3 -10 2 -10 4 0 1 -5 -7 -11 -10 -7 -11 -9 -2 -7
8 2 13 7 12 12 -1 5 4 13 12 17 9 6 9 9 1 9 -6 0 -15 -4 -18 -10z"/>
<path d="M78 1053 c7 -3 16 -2 19 1 4 3 -2 6 -13 5 -11 0 -14 -3 -6 -6z"/>
<path d="M177 1044 c2 -7 11 -10 19 -7 19 7 18 10 -5 16 -13 3 -18 1 -14 -9z"/>
<path d="M115 1034 c-20 -16 -19 -16 4 -9 18 5 22 4 16 -5 -5 -8 -4 -11 3 -6
6 4 9 13 5 21 -6 18 -3 18 -28 -1z"/>
<path d="M256 1038 c3 -5 10 -6 15 -3 13 9 11 12 -6 12 -8 0 -12 -4 -9 -9z"/>
<path d="M350 1036 c4 -4 16 -4 26 2 16 9 14 10 -8 9 -15 -1 -23 -6 -18 -11z"/>
<path d="M464 1036 c-3 -8 -13 -12 -24 -9 -10 3 -20 1 -23 -4 -10 -16 41 -7
58 10 9 9 11 17 5 17 -6 0 -13 -6 -16 -14z"/>
<path d="M55 1031 c-3 -5 0 -13 6 -17 8 -5 9 -3 4 6 -6 10 -4 12 9 7 10 -4 15
-3 11 3 -8 13 -22 13 -30 1z"/>
<path d="M236 1027 c3 -10 9 -15 12 -12 3 3 0 11 -7 18 -10 9 -11 8 -5 -6z"/>
<path d="M151 1007 c-13 -21 -12 -21 5 -5 10 10 16 20 13 22 -3 3 -11 -5 -18
-17z"/>
<path d="M205 1020 c-3 -5 -1 -18 5 -27 9 -15 10 -14 4 6 -4 17 -3 21 6 16 9
-5 11 -4 6 3 -9 15 -13 15 -21 2z"/>
<path d="M332 1025 c4 -4 0 -14 -10 -21 -9 -7 -12 -14 -6 -14 6 0 17 6 23 14
9 11 9 16 -1 22 -7 4 -10 4 -6 -1z"/>
<path d="M374 1015 c-3 -8 -3 -19 1 -25 5 -8 -1 -10 -16 -8 -17 2 -24 -2 -26
-17 -2 -15 -1 -16 5 -5 4 8 16 15 26 15 14 0 20 8 20 28 2 30 -2 34 -10 12z"/>
<path d="M479 1018 c-1 -7 -1 -19 0 -26 1 -7 -4 -11 -11 -10 -14 3 -20 -40 -7
-48 5 -3 17 0 26 6 16 10 16 10 -2 5 -16 -4 -21 0 -22 15 -1 11 3 19 9 17 7
-1 13 10 14 26 2 15 1 27 -2 27 -2 0 -5 -6 -5 -12z"/>
<path d="M260 1005 c0 -8 0 -18 0 -22 0 -5 8 -8 18 -8 9 0 23 -7 30 -15 11
-13 11 -12 3 7 -7 14 -17 20 -30 16 -16 -4 -19 -1 -14 16 3 12 3 21 -1 21 -3
0 -6 -7 -6 -15z"/>
<path d="M516 1004 c-7 -19 2 -37 15 -29 5 4 9 -4 9 -16 0 -21 -1 -21 -18 -6
-10 10 -23 17 -28 17 -5 0 -1 -5 8 -11 9 -5 15 -16 12 -24 -4 -8 -10 -12 -15
-9 -5 3 -6 -3 -2 -13 6 -16 5 -17 -13 -3 -17 14 -18 13 -7 -1 12 -15 8 -29 -9
-29 -4 0 -7 6 -6 12 4 20 -37 21 -53 2 -8 -10 -9 -15 -2 -11 6 4 14 3 18 -2
13 -22 60 -5 83 29 13 19 26 34 30 33 4 -2 7 7 7 20 0 13 -5 21 -13 19 -9 -2
-11 4 -7 18 7 24 0 27 -9 4z m-64 -116 c-9 -9 -15 -9 -24 0 -9 9 -7 12 12 12
19 0 21 -3 12 -12z"/>
<path d="M550 1005 c0 -8 4 -15 10 -15 5 0 7 7 4 15 -4 8 -8 15 -10 15 -2 0
-4 -7 -4 -15z"/>
<path d="M85 1000 c-3 -6 1 -7 9 -4 18 7 21 14 7 14 -6 0 -13 -4 -16 -10z"/>
<path d="M402 997 c10 -8 14 -18 10 -22 -4 -5 -1 -5 6 -1 17 10 15 14 -10 26
-21 10 -21 10 -6 -3z"/>
<path d="M56 983 c-6 -14 -5 -15 5 -6 7 7 10 15 7 18 -3 3 -9 -2 -12 -12z"/>
<path d="M148 968 c-10 -10 -14 -18 -9 -18 10 0 36 29 30 34 -2 1 -12 -6 -21
-16z"/>
<path d="M230 981 c0 -6 4 -13 10 -16 6 -3 7 1 4 9 -7 18 -14 21 -14 7z"/>
<path d="M110 970 c-8 -5 -10 -10 -5 -10 6 0 17 5 25 10 8 5 11 10 5 10 -5 0
-17 -5 -25 -10z"/>
<path d="M176 965 c-3 -8 -1 -15 4 -15 6 0 10 7 10 15 0 8 -2 15 -4 15 -2 0
-6 -7 -10 -15z"/>
<path d="M570 970 c0 -6 7 -13 15 -16 11 -5 13 -10 5 -19 -5 -6 -7 -15 -3 -18
3 -4 1 -7 -5 -7 -7 0 -12 -5 -12 -11 0 -8 5 -7 15 1 9 7 13 15 10 18 -3 3 -1
10 5 17 6 7 3 17 -10 28 -11 9 -20 12 -20 7z"/>
<path d="M210 960 c0 -5 5 -10 11 -10 5 0 7 5 4 10 -3 6 -8 10 -11 10 -2 0 -4
-4 -4 -10z"/>
<path d="M390 961 c0 -5 5 -13 10 -16 6 -3 10 -2 10 4 0 5 -4 13 -10 16 -5 3
-10 2 -10 -4z"/>
<path d="M431 954 c0 -11 3 -14 6 -6 3 7 2 16 -1 19 -3 4 -6 -2 -5 -13z"/>
<path d="M70 940 c0 -5 5 -10 10 -10 6 0 10 5 10 10 0 6 -4 10 -10 10 -5 0
-10 -4 -10 -10z"/>
<path d="M230 940 c-9 -6 -10 -10 -3 -10 6 0 15 5 18 10 8 12 4 12 -15 0z"/>
<path d="M260 946 c0 -2 7 -6 15 -10 8 -3 15 -1 15 4 0 6 -7 10 -15 10 -8 0
-15 -2 -15 -4z"/>
<path d="M350 940 c0 -5 7 -7 16 -3 14 5 14 3 3 -15 -7 -11 -18 -20 -23 -19
-6 1 -11 -9 -11 -23 0 -15 5 -24 13 -22 6 1 12 -4 12 -11 0 -23 -12 -27 -27
-9 -13 15 -13 15 -3 -5 6 -14 16 -20 26 -16 18 7 15 49 -4 46 -6 -2 -12 6 -12
18 0 11 4 18 9 15 10 -7 43 39 34 48 -10 10 -33 7 -33 -4z"/>
<path d="M552 930 c-7 -11 -8 -20 -3 -20 9 0 24 30 18 36 -1 2 -8 -6 -15 -16z"/>
<path d="M113 933 c-7 -2 -13 -11 -13 -19 0 -9 -5 -12 -12 -8 -7 4 -8 3 -4 -4
10 -16 11 -16 30 13 9 14 15 25 14 24 -2 0 -9 -3 -15 -6z"/>
<path d="M154 932 c3 -5 0 -13 -6 -15 -9 -4 -10 -6 -1 -6 17 -1 25 16 12 25
-7 4 -9 3 -5 -4z"/>
<path d="M188 933 c7 -3 16 -2 19 1 4 3 -2 6 -13 5 -11 0 -14 -3 -6 -6z"/>
<path d="M292 924 c-7 -8 -8 -14 -3 -14 10 0 25 19 20 25 -2 1 -10 -3 -17 -11z"/>
<path d="M322 920 c-18 -29 -15 -38 4 -12 9 13 14 25 12 27 -2 2 -9 -5 -16
-15z"/>
<path d="M254 915 c3 -9 0 -15 -9 -15 -18 0 -20 -16 -3 -26 6 -4 8 -3 4 4 -3
5 -1 12 6 14 14 5 20 38 6 38 -6 0 -8 -7 -4 -15z"/>
<path d="M400 920 c-8 -5 -12 -11 -10 -14 3 -2 14 2 24 10 22 15 10 19 -14 4z"/>
<path d="M611 914 c0 -11 3 -14 6 -6 3 7 2 16 -1 19 -3 4 -6 -2 -5 -13z"/>
<path d="M117 897 c-3 -8 -2 -20 3 -26 5 -9 8 -4 8 13 0 29 -3 32 -11 13z"/>
<path d="M156 895 c-17 -13 -18 -15 -3 -15 9 0 17 5 17 11 0 5 5 7 12 3 7 -4
8 -3 4 4 -9 14 -7 15 -30 -3z"/>
<path d="M519 899 c-1 -8 -1 -20 0 -26 1 -8 -5 -10 -16 -6 -15 5 -16 4 -5 -8
11 -12 15 -11 26 3 7 10 17 14 22 10 4 -4 2 2 -6 13 -8 11 -16 22 -17 24 -2 2
-4 -2 -4 -10z"/>
<path d="M197 887 c-3 -8 -2 -20 3 -26 5 -9 8 -4 8 13 0 29 -3 32 -11 13z"/>
<path d="M278 883 c7 -3 16 -2 19 1 4 3 -2 6 -13 5 -11 0 -14 -3 -6 -6z"/>
<path d="M370 880 c0 -12 35 -31 44 -23 3 3 6 -4 6 -17 0 -23 0 -23 -20 -5
-18 17 -20 17 -14 2 3 -9 10 -17 16 -17 5 0 6 -6 2 -12 -5 -9 -2 -8 10 1 19
16 18 55 -1 57 -7 1 -18 2 -24 3 -5 0 -7 6 -4 11 3 6 1 10 -4 10 -6 0 -11 -4
-11 -10z"/>
<path d="M596 875 c4 -8 8 -15 10 -15 2 0 4 7 4 15 0 8 -4 15 -10 15 -5 0 -7
-7 -4 -15z"/>
<path d="M632 876 c7 -8 15 -12 17 -11 5 6 -10 25 -20 25 -5 0 -4 -6 3 -14z"/>
<path d="M93 865 c0 -8 4 -12 9 -9 5 3 6 10 3 15 -9 13 -12 11 -12 -6z"/>
<path d="M156 859 c3 -5 10 -7 15 -4 5 4 9 -3 9 -15 0 -12 -4 -19 -9 -15 -5 3
-12 1 -15 -4 -4 -5 2 -8 11 -7 11 2 18 12 18 26 0 14 -7 24 -18 26 -9 1 -15
-2 -11 -7z"/>
<path d="M259 865 c-8 -35 -1 -50 21 -50 34 0 36 46 3 51 -13 2 -23 2 -24 -1z
m41 -25 c0 -9 -8 -16 -18 -17 -11 -1 -18 5 -18 17 0 12 7 18 18 17 10 -1 18
-8 18 -17z"/>
<path d="M443 831 c-6 -18 -7 -34 -1 -42 7 -11 8 -11 6 1 -1 8 2 25 6 38 11
34 2 36 -11 3z"/>
<path d="M130 840 c0 -5 5 -10 10 -10 6 0 10 5 10 10 0 6 -4 10 -10 10 -5 0
-10 -4 -10 -10z"/>
<path d="M220 840 c0 -5 5 -10 10 -10 6 0 10 5 10 10 0 6 -4 10 -10 10 -5 0
-10 -4 -10 -10z"/>
<path d="M485 830 c-16 -7 -17 -9 -3 -9 9 -1 20 4 23 9 7 11 7 11 -20 0z"/>
<path d="M112 816 c7 -8 15 -12 17 -11 5 6 -10 25 -20 25 -5 0 -4 -6 3 -14z"/>
<path d="M196 815 c-3 -9 -6 -22 -5 -28 0 -7 5 -1 10 12 5 13 8 26 5 28 -2 2
-6 -3 -10 -12z"/>
<path d="M515 819 c-4 -6 -4 -13 -1 -16 3 -4 6 -1 6 6 0 7 5 9 10 6 6 -3 10
-1 10 4 0 14 -17 14 -25 0z"/>
<path d="M220 806 c0 -2 7 -6 15 -10 8 -3 15 -1 15 4 0 6 -7 10 -15 10 -8 0
-15 -2 -15 -4z"/>
<path d="M310 802 c0 -4 5 -13 12 -20 8 -8 8 -15 -1 -25 -6 -8 -9 -22 -5 -30
5 -14 8 -14 20 -2 19 18 18 31 -1 15 -18 -15 -20 1 -3 18 8 8 8 15 0 25 -7 8
-9 17 -5 20 3 4 1 7 -5 7 -7 0 -12 -4 -12 -8z"/>
<path d="M376 799 c4 -8 -1 -9 -17 -5 -13 3 -18 3 -11 0 6 -3 9 -10 6 -16 -4
-6 2 -5 15 1 22 12 29 31 10 31 -5 0 -7 -5 -3 -11z"/>
<path d="M460 799 c0 -5 5 -7 10 -4 6 3 10 8 10 11 0 2 -4 4 -10 4 -5 0 -10
-5 -10 -11z"/>
<path d="M478 788 c-14 -14 -15 -18 -4 -18 8 0 17 7 20 16 9 23 4 24 -16 2z"/>
<path d="M140 796 c0 -2 7 -6 15 -10 8 -3 15 -1 15 4 0 6 -7 10 -15 10 -8 0
-15 -2 -15 -4z"/>
<path d="M270 790 c-13 -9 -13 -10 0 -11 8 -1 18 -1 23 0 12 2 8 -17 -5 -22
-10 -4 -10 -6 -1 -6 19 -1 26 20 12 35 -10 9 -19 10 -29 4z"/>
<path d="M530 790 c0 -5 5 -10 11 -10 5 0 7 5 4 10 -3 6 -8 10 -11 10 -2 0 -4
-4 -4 -10z"/>
<path d="M127 779 c7 -7 15 -10 18 -7 3 3 -2 9 -12 12 -14 6 -15 5 -6 -5z"/>
<path d="M220 775 c12 -14 9 -15 -21 -10 -18 3 -31 3 -28 0 4 -3 16 -7 28 -10
11 -2 26 -7 33 -11 7 -4 8 -3 4 4 -4 7 -2 12 3 12 6 0 11 5 11 11 0 5 -4 7
-10 4 -5 -3 -10 -1 -10 4 0 6 -5 11 -11 11 -8 0 -7 -5 1 -15z"/>
<path d="M150 750 c0 -5 7 -10 16 -10 14 0 14 -3 4 -15 -7 -9 -8 -15 -2 -15
20 0 21 30 2 40 -14 7 -20 7 -20 0z"/>
<path d="M255 740 c3 -5 12 -10 19 -10 8 0 21 -10 30 -22 l17 -23 -11 22 c-6
13 -19 27 -30 33 -24 13 -33 13 -25 0z"/>
<path d="M201 733 c-1 -6 10 -24 22 -40 13 -15 29 -37 35 -48 9 -15 11 -16 12
-4 0 9 -9 24 -20 34 -14 13 -17 22 -10 29 5 5 10 14 10 20 0 5 -7 1 -16 -10
-14 -17 -15 -17 -10 -1 3 10 2 16 -3 12 -5 -3 -12 1 -14 7 -4 9 -6 9 -6 1z"/>
<path d="M193 691 c0 -11 5 -18 9 -15 4 3 5 11 1 19 -7 21 -12 19 -10 -4z"/>
<path d="M255 700 c-8 -13 5 -13 25 0 13 8 13 10 -2 10 -9 0 -20 -4 -23 -10z"/>
<path d="M330 688 c0 -10 -5 -18 -12 -18 -6 0 -9 -3 -5 -6 3 -3 12 -2 21 3 10
6 12 13 6 23 -8 13 -10 12 -10 -2z"/>
<path d="M277 684 c-3 -3 -3 -13 0 -21 5 -12 7 -12 14 -1 15 23 4 40 -14 22z"/>
<path d="M207 655 c-4 -8 -1 -17 6 -21 7 -4 9 -4 5 1 -4 4 -3 14 3 22 7 8 8
13 1 13 -5 0 -12 -7 -15 -15z"/>
<path d="M953 644 c0 -7 4 -12 8 -11 4 1 6 0 6 -3 -1 -3 6 -18 15 -32 15 -23
15 -28 3 -38 -8 -7 -15 -9 -15 -5 0 4 -7 2 -15 -5 -8 -7 -12 -16 -9 -22 3 -5
1 -15 -5 -22 -8 -10 -7 -17 4 -26 12 -10 18 -8 35 11 10 13 19 28 20 34 0 11
34 -36 36 -50 0 -5 2 -13 4 -17 4 -11 7 -26 9 -38 0 -5 4 -9 9 -9 20 3 30 -3
28 -18 -2 -9 -13 -18 -25 -20 -16 -2 -20 1 -15 9 6 10 5 10 -8 1 -8 -7 -18 -9
-22 -5 -4 4 -12 8 -17 8 -5 1 -13 2 -19 3 -5 0 -9 7 -7 14 1 6 -5 12 -13 12
-18 0 -21 -43 -5 -65 19 -25 12 -45 -14 -45 -38 0 -36 -54 2 -61 4 -1 10 -2
13 -3 3 0 -3 -12 -14 -26 -27 -34 -11 -75 26 -69 13 3 21 1 18 -4 -2 -4 4 -9
15 -9 21 -2 24 5 8 27 -9 12 -10 11 -5 -5 5 -17 4 -18 -7 -5 -15 19 -41 25
-31 8 4 -7 3 -9 -1 -5 -12 10 -15 37 -5 37 4 0 7 10 6 23 -1 13 4 21 12 19 8
-1 11 2 7 8 -3 5 -13 10 -21 10 -8 0 -13 8 -11 20 4 26 13 34 23 19 4 -7 3
-10 -3 -6 -5 3 -10 1 -10 -6 0 -7 8 -13 18 -13 14 0 16 4 8 21 -10 20 -10 20
5 1 9 -11 16 -14 16 -8 0 19 -4 27 -12 25 -4 -2 -5 5 -2 15 5 13 4 14 -4 3 -5
-7 -11 -9 -14 -5 -2 5 6 19 18 30 20 20 23 20 30 5 4 -9 6 -20 5 -26 -1 -5 6
-1 14 9 8 11 15 25 15 30 0 6 5 4 10 -4 8 -13 11 -12 24 5 8 11 11 22 7 25 -5
3 -7 13 -6 22 2 9 -2 15 -8 14 -7 -2 -9 -1 -4 1 4 3 4 9 1 14 -3 6 -11 5 -20
-2 -9 -7 -14 -8 -13 -3 1 5 0 11 -1 14 -8 20 -5 48 4 43 6 -4 4 2 -4 12 -13
17 -13 18 0 10 12 -6 13 -6 2 6 -11 12 -14 12 -22 -1 -6 -9 -10 -10 -10 -3 0
20 20 26 38 11 15 -11 15 -11 5 3 -7 9 -10 19 -6 22 3 4 0 14 -8 24 -12 14
-12 16 0 8 10 -6 12 -4 6 6 -5 8 -5 11 0 7 4 -4 14 0 22 10 13 15 13 15 4 -4
-10 -21 -6 -34 10 -34 4 0 6 9 4 21 -4 18 -2 19 11 8 13 -10 17 -10 25 2 6 10
9 11 9 1 0 -8 5 -10 13 -5 19 12 38 12 31 1 -4 -6 3 -5 15 1 23 13 45 6 36
-10 -4 -5 -2 -9 4 -9 6 0 8 -8 4 -17 -3 -10 -3 -15 2 -11 11 10 15 59 5 53 -5
-3 -11 -2 -14 3 -3 5 -33 8 -68 7 -35 -1 -67 1 -73 4 -17 9 -35 10 -29 0 10
-17 -13 -9 -42 14 -16 12 -30 21 -31 20 -2 -2 -4 -3 -5 -2 -22 6 -35 4 -35 -7z
m47 -9 c3 0 15 -8 28 -17 15 -10 20 -18 12 -23 -8 -5 -8 -11 2 -22 10 -12 9
-17 -7 -26 -11 -6 -23 -12 -27 -12 -3 0 -16 -12 -28 -28 -12 -15 -26 -24 -31
-21 -6 4 -6 11 2 20 6 7 16 11 21 7 6 -3 8 0 6 8 -3 8 -11 13 -17 11 -7 -1 -9
2 -6 8 4 6 10 9 13 6 3 -3 13 1 23 10 17 15 17 18 2 40 -8 13 -12 24 -8 24 4
0 1 8 -6 17 -12 15 -12 16 1 8 8 -6 17 -10 20 -10z m-7 -259 c18 2 18 2 1 -17
-18 -21 -36 -13 -40 16 -2 11 1 13 9 7 7 -5 20 -8 30 -6z m52 -16 c3 -5 1 -10
-4 -10 -6 0 -11 5 -11 10 0 6 2 10 4 10 3 0 8 -4 11 -10z m-105 -80 c-5 -10
-7 -20 -5 -24 3 -3 2 -4 -2 -1 -12 10 -10 42 3 42 9 0 10 -5 4 -17z m11 -79
c-6 -10 -7 -22 -3 -26 4 -5 1 -5 -6 -1 -9 5 -9 12 -2 27 6 10 13 19 16 19 2 0
0 -8 -5 -19z"/>
<path d="M996 622 c-3 -5 1 -18 9 -28 12 -17 11 -22 -8 -44 -13 -14 -15 -19
-4 -11 9 7 17 10 17 6 0 -4 7 -2 15 5 10 9 12 17 6 23 -5 5 -7 15 -5 22 6 14
-22 40 -30 27z m22 -27 c-3 -3 -9 2 -12 12 -6 14 -5 15 5 6 7 -7 10 -15 7 -18z"/>
<path d="M966 358 c3 -5 10 -6 15 -3 13 9 11 12 -6 12 -8 0 -12 -4 -9 -9z"/>
<path d="M233 632 c1 -14 5 -18 11 -12 7 7 6 14 -1 21 -9 9 -12 7 -10 -9z"/>
<path d="M300 639 c0 -5 5 -7 10 -4 6 3 10 8 10 11 0 2 -4 4 -10 4 -5 0 -10
-5 -10 -11z"/>
<path d="M260 613 l-25 -25 28 17 c15 10 27 21 27 26 0 12 -2 11 -30 -18z"/>
<path d="M320 600 c-13 -8 -12 -10 3 -10 9 0 17 5 17 10 0 12 -1 12 -20 0z"/>
<path d="M1156 593 c-11 -11 -7 -20 9 -20 8 0 15 4 15 8 0 11 -16 20 -24 12z"/>
<path d="M1194 583 c-23 -23 -42 -25 -54 -5 -7 12 -9 13 -10 3 0 -11 -3 -11
-16 -1 -8 8 -14 9 -13 4 5 -17 -13 -54 -23 -48 -7 4 -6 9 1 14 9 5 8 10 -2 18
-11 9 -13 8 -12 -8 1 -11 4 -23 8 -26 4 -4 2 -13 -4 -21 -6 -7 -8 -13 -5 -13
4 0 2 -9 -4 -19 -7 -13 -7 -22 0 -26 5 -3 10 -1 10 4 0 15 27 14 36 -1 5 -8 2
-9 -11 -4 -18 6 -18 6 -2 -12 9 -10 14 -22 10 -27 -5 -4 1 -5 11 -1 16 5 17 4
6 -9 -7 -8 -10 -15 -6 -15 4 0 -1 -11 -10 -26 -11 -16 -23 -23 -33 -19 -8 3
-12 3 -8 -1 4 -4 -1 -13 -11 -20 -23 -18 -35 -17 -29 1 7 16 -8 31 -17 17 -3
-5 1 -17 8 -28 17 -22 0 -68 -21 -60 -8 4 -11 1 -8 -5 4 -6 13 -8 20 -5 7 2
18 -1 24 -7 8 -8 11 -8 11 0 0 7 -4 15 -10 18 -6 4 -4 17 5 36 16 30 29 40 19
15 -6 -15 10 -29 36 -33 10 -1 16 6 17 18 2 17 -1 18 -12 9 -17 -14 -36 -5
-29 15 3 8 9 14 12 13 17 -2 32 3 31 10 -1 4 -1 14 0 22 1 13 2 13 11 0 7 -11
10 -12 10 -2 0 9 8 11 23 7 18 -5 17 -3 -5 10 -30 17 -38 28 -14 19 19 -7 15
24 -5 36 -16 11 -19 30 -6 48 6 7 6 12 -1 12 -6 0 -13 -6 -15 -12 -4 -10 -6
-10 -6 -1 -1 7 -8 10 -18 7 -15 -5 -16 -4 -3 5 13 9 13 11 0 11 -10 0 -7 5 8
16 12 8 20 19 18 23 -3 4 0 13 6 21 8 13 9 13 5 -1 -3 -9 1 -16 8 -16 7 0 11
7 8 16 -4 14 -3 14 5 1 6 -8 9 -17 7 -21 -3 -3 6 -6 20 -6 13 0 24 2 23 6 -2
20 4 31 14 25 7 -4 8 -3 4 4 -4 7 -5 12 -2 12 3 0 10 -9 15 -19 9 -17 8 -18
-12 -14 -22 5 -22 5 -2 -10 26 -20 38 -8 26 25 -5 14 -7 29 -4 32 4 3 1 6 -5
6 -6 0 -18 -8 -28 -17z"/>
<path d="M1253 545 c-17 -36 -27 -43 -38 -25 -8 13 -25 13 -25 -1 0 -5 4 -8 9
-4 5 3 13 1 16 -5 4 -6 3 -10 -2 -9 -20 3 -27 -2 -14 -10 12 -8 12 -12 2 -25
-11 -12 -9 -15 8 -13 15 1 19 6 16 18 -3 9 2 22 12 30 15 11 16 11 6 -1 -18
-20 -16 -35 2 -20 9 7 13 22 10 34 -3 12 -2 15 1 8 3 -6 10 -9 15 -6 6 3 5 12
-3 22 -12 16 -11 16 6 2 18 -14 19 -13 13 3 -5 13 -3 16 6 11 8 -5 7 -2 -2 9
-18 23 -19 22 -38 -18z"/>
<path d="M1310 561 c0 -5 -16 -29 -35 -54 -19 -25 -31 -48 -26 -52 5 -3 12 3
16 14 3 10 22 35 42 56 27 27 38 33 44 24 4 -8 11 -10 15 -6 4 4 4 10 1 13
-10 10 -57 13 -57 5z"/>
<path d="M1107 520 c-9 -11 -16 -20 -14 -21 22 -6 58 -6 62 1 3 5 13 6 23 3
15 -6 15 -5 3 10 -13 16 -14 16 -26 1 -12 -18 -35 -12 -35 9 0 7 4 6 10 -3 5
-8 12 -12 15 -9 3 4 -1 11 -8 17 -10 9 -17 7 -30 -8z"/>
<path d="M1298 506 c-12 -16 -14 -26 -6 -34 7 -7 7 -16 -1 -30 -6 -10 -7 -22
-4 -26 4 -4 13 4 20 16 8 15 12 18 13 8 0 -13 1 -13 10 0 14 21 12 30 -4 24
-17 -7 -19 33 -3 54 5 6 6 12 1 12 -5 0 -17 -11 -26 -24z"/>
<path d="M1145 484 c-23 -17 -30 -45 -9 -37 9 3 14 0 12 -7 -2 -7 4 -15 12
-17 9 -3 11 -1 5 4 -13 11 -15 54 -2 46 6 -4 7 -1 2 7 -5 9 -4 11 4 6 6 -4 9
-12 6 -17 -4 -5 -2 -9 4 -9 19 0 21 19 4 29 -13 6 -24 5 -38 -5z"/>
<path d="M1263 447 c-9 -19 -8 -25 5 -34 15 -9 15 -10 -1 -10 -9 0 -17 4 -17
9 0 4 -4 8 -9 8 -6 0 -9 -9 -8 -19 1 -14 8 -18 24 -17 29 3 37 11 27 28 -12
19 -14 38 -3 38 5 0 9 5 9 10 0 18 -17 10 -27 -13z"/>
<path d="M1167 444 c3 -7 9 -14 14 -14 14 0 10 17 -5 23 -10 4 -13 1 -9 -9z"/>
<path d="M1180 423 c-36 -25 -37 -30 -12 -49 11 -8 12 -13 4 -18 -7 -4 -16 -5
-21 -1 -5 3 -12 1 -16 -5 -4 -6 -10 -8 -14 -6 -4 3 -7 -14 -7 -37 1 -34 -2
-42 -16 -41 -10 1 -16 -2 -13 -6 3 -5 0 -10 -7 -12 -9 -3 -9 -6 0 -12 7 -4 12
-2 12 3 0 6 5 11 10 11 5 0 9 -5 7 -11 -1 -6 5 -14 13 -16 13 -4 13 -3 0 6
-13 10 -13 11 0 11 12 0 13 2 1 9 -11 7 -9 10 8 16 17 5 20 10 11 20 -7 8 -8
20 -4 26 5 8 3 9 -6 4 -9 -5 -11 -4 -6 4 4 6 12 9 17 6 5 -4 9 -1 9 5 0 7 8 9
21 5 15 -5 19 -4 15 4 -4 6 0 14 10 18 15 5 14 8 -7 15 -22 8 -22 10 -6 19 9
6 15 14 12 19 -3 5 -1 11 4 14 10 7 9 -13 -2 -30 -4 -7 0 -14 8 -17 8 -4 12
-15 10 -27 -3 -17 0 -20 12 -16 8 4 21 1 29 -5 10 -8 13 -6 11 10 -1 16 -6 20
-22 16 -16 -5 -17 -4 -4 4 18 12 42 9 62 -7 8 -7 23 -10 33 -6 11 3 15 2 9 -3
-16 -13 -15 -45 1 -39 7 3 16 0 20 -6 4 -7 3 -8 -4 -4 -7 4 -12 1 -12 -8 0
-19 11 -20 30 -3 12 10 12 9 1 -5 -14 -19 -3 -24 17 -8 9 7 9 7 2 -2 -13 -15
-13 -38 0 -38 5 0 9 6 7 13 -1 7 8 12 26 11 16 -1 26 3 24 10 -3 6 -10 10 -16
8 -12 -2 -91 44 -91 54 0 3 5 2 10 -1 18 -11 10 11 -10 30 -12 10 -20 13 -20
6 0 -8 -5 -8 -19 1 -18 11 -18 12 5 31 20 15 28 17 39 7 9 -7 15 -8 15 -2 0
14 -26 33 -41 30 -8 -2 -21 -14 -29 -27 -17 -27 -87 -43 -77 -17 3 7 1 18 -5
24 -7 7 -3 12 11 17 21 6 29 25 11 25 -5 0 -10 -6 -10 -12 0 -9 -3 -9 -8 -2
-5 7 -19 2 -42 -13z"/>
<path d="M1275 351 c-3 -5 4 -12 15 -16 11 -4 18 -11 15 -16 -4 -5 1 -9 9 -9
9 0 16 3 16 8 -1 13 -49 42 -55 33z"/>
<path d="M1150 311 c-7 -14 -7 -22 2 -27 7 -5 8 -3 3 6 -5 9 -4 11 4 6 9 -6 9
-11 1 -21 -8 -10 -8 -15 1 -21 8 -4 9 -3 5 4 -4 7 -2 10 6 7 8 -3 14 4 14 20
1 14 -2 23 -6 20 -5 -3 -12 0 -16 6 -5 8 -3 9 6 4 9 -5 11 -4 6 3 -10 16 -14
15 -26 -7z"/>
<path d="M1190 320 c0 -5 5 -10 10 -10 6 0 10 5 10 10 0 6 -4 10 -10 10 -5 0
-10 -4 -10 -10z"/>
<path d="M1210 306 c-21 -23 -21 -26 -6 -41 9 -9 16 -13 16 -8 0 5 -5 14 -12
21 -13 13 -1 17 31 12 13 -2 13 1 0 17 -13 16 -12 17 2 5 9 -7 25 -10 35 -6
14 4 15 3 5 -4 -8 -6 -9 -12 -3 -16 14 -9 24 8 16 28 -5 12 -10 14 -19 6 -9
-8 -15 -8 -20 0 -10 15 -19 12 -45 -14z"/>
<path d="M1080 310 c-9 -6 -10 -10 -3 -10 6 0 15 5 18 10 8 12 4 12 -15 0z"/>
<path d="M1300 285 c-10 -12 -16 -13 -27 -4 -17 15 -26 7 -17 -15 6 -15 9 -15
40 3 19 11 33 16 31 12 -1 -5 7 -17 18 -27 11 -11 16 -16 11 -11 -18 13 -29 7
-16 -8 7 -9 18 -14 25 -11 6 2 17 -6 24 -17 11 -18 11 -20 0 -9 -19 18 -37 15
-44 -7 -3 -11 -12 -18 -19 -15 -7 3 -19 -2 -26 -11 -15 -18 0 -21 18 -3 9 9
12 9 12 0 0 -7 -6 -13 -12 -14 -7 0 -17 -2 -23 -2 -5 -1 -16 -5 -22 -9 -9 -6
-11 -3 -6 10 6 15 4 16 -9 5 -8 -7 -24 -9 -33 -5 -11 3 -16 2 -12 -3 3 -5 -15
-9 -43 -9 -26 0 -46 3 -44 6 2 4 -3 10 -11 13 -9 3 -18 -1 -21 -9 -4 -8 -11
-15 -16 -15 -7 0 -6 5 1 13 8 10 7 14 -4 14 -8 0 -12 -3 -10 -7 2 -4 -2 -7
-10 -7 -8 0 -12 4 -9 9 3 4 -1 8 -8 8 -11 0 -10 2 0 9 11 6 10 10 -5 16 -10 5
-21 7 -25 7 -5 -1 -8 3 -8 9 0 5 -5 7 -12 3 -7 -4 -8 -3 -4 5 6 9 14 8 32 -3
29 -20 38 -20 31 -2 -6 15 9 16 33 1 18 -11 61 -15 55 -4 -3 4 2 10 11 13 8 3
13 10 10 14 -3 5 1 9 9 9 11 0 12 -4 4 -14 -15 -17 1 -16 25 2 22 17 12 40
-12 26 -10 -6 -23 -6 -33 0 -13 7 -17 5 -14 -9 4 -25 -16 -47 -26 -30 -5 7
-13 14 -19 14 -5 1 -15 2 -21 3 -6 0 -8 8 -5 17 8 22 -14 50 -25 32 -4 -7 -3
-18 2 -25 14 -16 1 -37 -15 -24 -7 6 -17 6 -26 1 -8 -5 -17 -7 -20 -5 -3 2 -6
-9 -6 -25 -1 -23 2 -28 17 -25 16 3 46 -29 42 -45 -1 -4 23 -6 132 -10 21 -1
181 10 205 14 14 2 36 4 50 5 30 2 57 17 47 27 -3 4 -13 2 -20 -4 -7 -6 -23
-10 -35 -7 -12 2 -22 0 -22 -6 0 -5 -5 -9 -10 -9 -6 0 -5 8 2 20 7 11 18 18
25 16 7 -3 15 -1 18 4 3 4 0 10 -7 12 -13 5 3 41 18 38 5 -1 10 2 11 7 2 5 -6
9 -17 10 -11 1 -18 -2 -15 -7 3 -5 0 -12 -5 -15 -6 -4 -28 11 -49 34 -43 46
-44 47 -61 26z m-269 -72 c13 -16 12 -17 -3 -4 -10 7 -18 15 -18 17 0 8 8 3
21 -13z m339 -48 c-15 -18 -34 -20 -27 -2 2 6 10 11 17 9 8 -2 10 3 6 15 -6
14 -5 15 5 6 10 -10 9 -15 -1 -28z"/>
<path d="M1223 275 c6 -21 -15 -70 -30 -70 -4 0 -7 -3 -5 -7 3 -12 -16 -9 -24
3 -5 8 -9 7 -16 -4 -4 -9 -17 -14 -28 -12 -13 3 -17 -1 -13 -11 3 -8 8 -13 10
-10 3 3 11 -1 19 -8 15 -15 67 -13 72 4 3 8 8 7 18 -1 11 -9 18 -9 26 -1 6 6
17 8 24 5 8 -3 17 2 20 11 3 9 15 16 26 16 10 0 16 5 13 10 -4 6 -10 8 -15 5
-5 -3 -12 0 -17 7 -10 16 -45 20 -40 4 2 -6 9 -12 15 -12 23 -3 24 -4 12 -19
-7 -8 -16 -12 -22 -9 -5 3 -17 0 -26 -8 -15 -12 -16 -11 -3 5 14 17 13 18 -5
15 -10 -1 -26 -10 -34 -18 -8 -9 -11 -10 -6 -3 5 7 5 13 0 13 -5 0 -4 4 2 8 6
4 16 16 23 27 11 18 11 18 5 -5 -6 -22 -5 -23 9 -11 9 7 14 17 11 22 -3 5 0 9
5 9 6 0 11 5 11 11 0 6 -7 8 -16 5 -14 -5 -15 -4 -5 7 9 11 7 17 -5 28 -15 12
-16 12 -11 -6z m-49 -94 c7 -10 -18 -34 -27 -25 -7 8 3 34 13 34 5 0 11 -4 14
-9z"/>
<path d="M1293 257 c-23 -10 -31 -27 -13 -27 6 0 10 6 10 13 1 6 6 3 13 -8 7
-11 21 -22 31 -23 17 -3 18 -2 7 12 -7 9 -17 13 -22 10 -5 -3 -9 -1 -9 5 0 5
5 11 12 13 7 3 8 7 3 10 -6 3 -20 1 -32 -5z"/>
<path d="M1458 235 c-6 -14 -18 -25 -25 -25 -8 0 -11 -5 -8 -10 4 -7 12 -7 25
0 13 7 21 7 26 -2 4 -6 3 -8 -3 -5 -6 4 -22 -2 -34 -13 -13 -11 -19 -19 -13
-20 5 0 16 6 23 13 10 10 15 8 26 -7 13 -17 14 -17 11 8 -1 14 -6 29 -9 33 -4
3 -4 17 -1 29 8 32 -3 31 -18 -1z"/>
<path d="M1059 203 c0 -4 -2 -15 -4 -23 -2 -11 5 -16 20 -16 19 0 22 3 14 17
-11 21 -29 34 -30 22z"/>
<path d="M1250 202 c0 -15 28 -23 36 -9 4 7 4 9 -1 5 -4 -4 -14 -3 -22 3 -8 7
-13 8 -13 1z"/>
</g>
</svg>
